<mxfile host="app.diagrams.net" modified="2023-06-19T12:02:12.864Z" agent="Mozilla/5.0 (Windows NT 10.0; Win64; x64) AppleWebKit/537.36 (KHTML, like Gecko) Chrome/114.0.0.0 Safari/537.36" etag="q6uQAE7yEi2hG1aN4rG0" version="21.5.0" type="device" pages="4">
  <diagram id="LrikgwG88DmE1Yh7e2Cj" name="Context">
    <mxGraphModel dx="1434" dy="760" grid="1" gridSize="10" guides="1" tooltips="1" connect="1" arrows="1" fold="1" page="1" pageScale="1" pageWidth="1169" pageHeight="827" math="0" shadow="0">
      <root>
        <mxCell id="3Hh8kzgA46x1IAGnEh3b-0" />
        <mxCell id="3Hh8kzgA46x1IAGnEh3b-1" parent="3Hh8kzgA46x1IAGnEh3b-0" />
        <mxCell id="GA9IRfuLcJALIdVTA_2t-0" style="edgeStyle=orthogonalEdgeStyle;rounded=0;orthogonalLoop=1;jettySize=auto;html=1;entryX=0.5;entryY=0;entryDx=0;entryDy=0;entryPerimeter=0;dashed=1;" parent="3Hh8kzgA46x1IAGnEh3b-1" source="GA9IRfuLcJALIdVTA_2t-2" target="GA9IRfuLcJALIdVTA_2t-5" edge="1">
          <mxGeometry relative="1" as="geometry">
            <mxPoint x="250" y="310" as="targetPoint" />
          </mxGeometry>
        </mxCell>
        <mxCell id="GA9IRfuLcJALIdVTA_2t-1" value="&lt;font style=&quot;font-size: 20px; background-color: rgb(255, 255, 255);&quot;&gt;Utiliza&lt;/font&gt;" style="edgeLabel;html=1;align=center;verticalAlign=middle;resizable=0;points=[];fontSize=20;" parent="GA9IRfuLcJALIdVTA_2t-0" vertex="1" connectable="0">
          <mxGeometry x="-0.28" y="-1" relative="1" as="geometry">
            <mxPoint as="offset" />
          </mxGeometry>
        </mxCell>
        <object placeholders="1" c4Name="Profissional Ed. Física" c4Type="Person" c4Description="Profissional Ed. Física &#xa;cadastrado no sistema" label="&lt;font style=&quot;font-size: 16px;&quot;&gt;&lt;b style=&quot;font-size: 16px;&quot;&gt;%c4Name%&lt;/b&gt;&lt;/font&gt;&lt;div style=&quot;font-size: 16px;&quot;&gt;[%c4Type%]&lt;/div&gt;&lt;br style=&quot;font-size: 16px;&quot;&gt;&lt;div style=&quot;font-size: 16px;&quot;&gt;&lt;font style=&quot;font-size: 16px;&quot;&gt;&lt;font color=&quot;#cccccc&quot; style=&quot;font-size: 16px;&quot;&gt;%c4Description%&lt;/font&gt;&lt;/font&gt;&lt;/div&gt;" id="GA9IRfuLcJALIdVTA_2t-2">
          <mxCell style="html=1;fontSize=16;dashed=0;whitespace=wrap;fillColor=#083F75;strokeColor=#06315C;fontColor=#ffffff;shape=mxgraph.c4.person2;align=center;metaEdit=1;points=[[0.5,0,0],[1,0.5,0],[1,0.75,0],[0.75,1,0],[0.5,1,0],[0.25,1,0],[0,0.75,0],[0,0.5,0]];resizable=0;" parent="3Hh8kzgA46x1IAGnEh3b-1" vertex="1">
            <mxGeometry x="600" y="10" width="200" height="180" as="geometry" />
          </mxCell>
        </object>
        <mxCell id="GA9IRfuLcJALIdVTA_2t-3" style="edgeStyle=orthogonalEdgeStyle;rounded=0;orthogonalLoop=1;jettySize=auto;html=1;entryX=1;entryY=0.5;entryDx=0;entryDy=0;entryPerimeter=0;dashed=1;" parent="3Hh8kzgA46x1IAGnEh3b-1" source="GA9IRfuLcJALIdVTA_2t-5" target="GA9IRfuLcJALIdVTA_2t-8" edge="1">
          <mxGeometry relative="1" as="geometry" />
        </mxCell>
        <mxCell id="GA9IRfuLcJALIdVTA_2t-4" value="Envia e-mail usando&amp;nbsp;&lt;br style=&quot;font-size: 19px;&quot;&gt;SMTP" style="edgeLabel;html=1;align=center;verticalAlign=middle;resizable=0;points=[];fontSize=19;" parent="GA9IRfuLcJALIdVTA_2t-3" vertex="1" connectable="0">
          <mxGeometry x="0.15" y="-3" relative="1" as="geometry">
            <mxPoint x="31" y="3" as="offset" />
          </mxGeometry>
        </mxCell>
        <object placeholders="1" c4Name="Me Fit" c4Type="Software System" c4Description="Sistema de gestão de sessões de treinamento e avaliações físicas" label="&lt;font style=&quot;font-size: 16px;&quot;&gt;&lt;b style=&quot;font-size: 16px;&quot;&gt;%c4Name%&lt;/b&gt;&lt;/font&gt;&lt;div style=&quot;font-size: 16px;&quot;&gt;[%c4Type%]&lt;/div&gt;&lt;br style=&quot;font-size: 16px;&quot;&gt;&lt;div style=&quot;font-size: 16px;&quot;&gt;&lt;font style=&quot;font-size: 16px;&quot;&gt;&lt;font color=&quot;#cccccc&quot; style=&quot;font-size: 16px;&quot;&gt;%c4Description%&lt;/font&gt;&lt;/font&gt;&lt;/div&gt;" id="GA9IRfuLcJALIdVTA_2t-5">
          <mxCell style="rounded=1;whiteSpace=wrap;html=1;labelBackgroundColor=none;fillColor=#1061B0;fontColor=#ffffff;align=center;arcSize=10;strokeColor=#0D5091;metaEdit=1;resizable=0;points=[[0.25,0,0],[0.5,0,0],[0.75,0,0],[1,0.25,0],[1,0.5,0],[1,0.75,0],[0.75,1,0],[0.5,1,0],[0.25,1,0],[0,0.75,0],[0,0.5,0],[0,0.25,0]];fontSize=16;" parent="3Hh8kzgA46x1IAGnEh3b-1" vertex="1">
            <mxGeometry x="580" y="300" width="240" height="120" as="geometry" />
          </mxCell>
        </object>
        <mxCell id="GA9IRfuLcJALIdVTA_2t-6" style="edgeStyle=orthogonalEdgeStyle;rounded=0;orthogonalLoop=1;jettySize=auto;html=1;entryX=0;entryY=0.75;entryDx=0;entryDy=0;entryPerimeter=0;dashed=1;exitX=0.5;exitY=1;exitDx=0;exitDy=0;exitPerimeter=0;" parent="3Hh8kzgA46x1IAGnEh3b-1" source="GA9IRfuLcJALIdVTA_2t-8" target="GA9IRfuLcJALIdVTA_2t-11" edge="1">
          <mxGeometry relative="1" as="geometry" />
        </mxCell>
        <mxCell id="GA9IRfuLcJALIdVTA_2t-7" value="Envia o treino em PDF" style="edgeLabel;html=1;align=center;verticalAlign=middle;resizable=0;points=[];fontSize=20;" parent="GA9IRfuLcJALIdVTA_2t-6" vertex="1" connectable="0">
          <mxGeometry x="-0.4654" y="1" relative="1" as="geometry">
            <mxPoint x="-1" y="4" as="offset" />
          </mxGeometry>
        </mxCell>
        <object placeholders="1" c4Name="Sistema de e-mail" c4Type="Software System" c4Description="Serviço de e-mail externo Brevo" label="&lt;font style=&quot;font-size: 16px;&quot;&gt;&lt;b style=&quot;font-size: 16px;&quot;&gt;%c4Name%&lt;/b&gt;&lt;/font&gt;&lt;div style=&quot;font-size: 16px;&quot;&gt;[%c4Type%]&lt;/div&gt;&lt;br style=&quot;font-size: 16px;&quot;&gt;&lt;div style=&quot;font-size: 16px;&quot;&gt;&lt;font style=&quot;font-size: 16px;&quot;&gt;&lt;font color=&quot;#cccccc&quot; style=&quot;font-size: 16px;&quot;&gt;%c4Description%&lt;/font&gt;&lt;/font&gt;&lt;/div&gt;" id="GA9IRfuLcJALIdVTA_2t-8">
          <mxCell style="rounded=1;whiteSpace=wrap;html=1;labelBackgroundColor=none;fillColor=#8C8496;fontColor=#ffffff;align=center;arcSize=10;strokeColor=#736782;metaEdit=1;resizable=0;points=[[0.25,0,0],[0.5,0,0],[0.75,0,0],[1,0.25,0],[1,0.5,0],[1,0.75,0],[0.75,1,0],[0.5,1,0],[0.25,1,0],[0,0.75,0],[0,0.5,0],[0,0.25,0]];fontSize=16;" parent="3Hh8kzgA46x1IAGnEh3b-1" vertex="1">
            <mxGeometry x="10" y="300" width="240" height="120" as="geometry" />
          </mxCell>
        </object>
        <mxCell id="GA9IRfuLcJALIdVTA_2t-9" style="edgeStyle=orthogonalEdgeStyle;rounded=0;orthogonalLoop=1;jettySize=auto;html=1;entryX=0.5;entryY=1;entryDx=0;entryDy=0;entryPerimeter=0;dashed=1;fontSize=15;" parent="3Hh8kzgA46x1IAGnEh3b-1" source="GA9IRfuLcJALIdVTA_2t-11" target="GA9IRfuLcJALIdVTA_2t-5" edge="1">
          <mxGeometry relative="1" as="geometry" />
        </mxCell>
        <mxCell id="GA9IRfuLcJALIdVTA_2t-10" value="Utiliza" style="edgeLabel;html=1;align=center;verticalAlign=middle;resizable=0;points=[];fontSize=20;" parent="GA9IRfuLcJALIdVTA_2t-9" vertex="1" connectable="0">
          <mxGeometry x="0.2333" y="2" relative="1" as="geometry">
            <mxPoint x="2" y="32" as="offset" />
          </mxGeometry>
        </mxCell>
        <object placeholders="1" c4Name="Aluno" c4Type="Person" c4Description="Aluno cadastrado por um &#xa;profissional Ed. Física" label="&lt;font style=&quot;font-size: 16px;&quot;&gt;&lt;b style=&quot;font-size: 16px;&quot;&gt;%c4Name%&lt;/b&gt;&lt;/font&gt;&lt;div style=&quot;font-size: 16px;&quot;&gt;[%c4Type%]&lt;/div&gt;&lt;br style=&quot;font-size: 16px;&quot;&gt;&lt;div style=&quot;font-size: 16px;&quot;&gt;&lt;font style=&quot;font-size: 16px;&quot;&gt;&lt;font color=&quot;#cccccc&quot; style=&quot;font-size: 16px;&quot;&gt;%c4Description%&lt;/font&gt;&lt;/font&gt;&lt;/div&gt;" id="GA9IRfuLcJALIdVTA_2t-11">
          <mxCell style="html=1;fontSize=16;dashed=0;whitespace=wrap;fillColor=#083F75;strokeColor=#06315C;fontColor=#ffffff;shape=mxgraph.c4.person2;align=center;metaEdit=1;points=[[0.5,0,0],[1,0.5,0],[1,0.75,0],[0.75,1,0],[0.5,1,0],[0.25,1,0],[0,0.75,0],[0,0.5,0]];resizable=0;" parent="3Hh8kzgA46x1IAGnEh3b-1" vertex="1">
            <mxGeometry x="600" y="570" width="200" height="180" as="geometry" />
          </mxCell>
        </object>
      </root>
    </mxGraphModel>
  </diagram>
  <diagram id="UWa-a2s8Hetns6zqG-la" name="Container">
    <mxGraphModel dx="1434" dy="760" grid="1" gridSize="10" guides="1" tooltips="1" connect="1" arrows="1" fold="1" page="1" pageScale="1" pageWidth="1169" pageHeight="827" math="0" shadow="0">
      <root>
        <mxCell id="0" />
        <mxCell id="1" parent="0" />
        <mxCell id="axH6FzbFWB7dlb7QHLDB-18" style="edgeStyle=orthogonalEdgeStyle;rounded=0;orthogonalLoop=1;jettySize=auto;html=1;" parent="1" source="nOdenu87jLlAO-vVyZeA-6" target="axH6FzbFWB7dlb7QHLDB-17" edge="1">
          <mxGeometry relative="1" as="geometry" />
        </mxCell>
        <mxCell id="Qc5Xa5dYz3zw_nj462wo-1" value="&lt;b style=&quot;font-size: 14px&quot;&gt;Utiliza&amp;nbsp;&lt;br&gt;&lt;/b&gt;&lt;span style=&quot;font-size: 14px&quot;&gt;[HTTPs/REST]&lt;/span&gt;" style="edgeLabel;html=1;align=center;verticalAlign=middle;resizable=0;points=[];" parent="axH6FzbFWB7dlb7QHLDB-18" vertex="1" connectable="0">
          <mxGeometry x="0.1094" y="4" relative="1" as="geometry">
            <mxPoint x="-12" y="-6" as="offset" />
          </mxGeometry>
        </mxCell>
        <object placeholders="1" c4Type="Single-Page Application" c4Container="Container " c4Technology="Javascript React" c4Description="Provê o acesso dos usuários à aplicação" label="&lt;font style=&quot;font-size: 16px&quot;&gt;&lt;b&gt;%c4Type%&lt;/font&gt;&lt;div&gt;[%c4Container%:&amp;nbsp;%c4Technology%]&lt;/div&gt;&lt;br&gt;&lt;div&gt;&lt;font style=&quot;font-size: 11px&quot;&gt;&lt;font color=&quot;#E6E6E6&quot;&gt;%c4Description%&lt;/font&gt;&lt;/div&gt;" id="nOdenu87jLlAO-vVyZeA-6">
          <mxCell style="shape=mxgraph.c4.webBrowserContainer;whiteSpace=wrap;html=1;boundedLbl=1;rounded=0;labelBackgroundColor=none;fillColor=#118ACD;fontSize=12;fontColor=#ffffff;align=center;strokeColor=#0E7DAD;metaEdit=1;points=[[0.5,0,0],[1,0.25,0],[1,0.5,0],[1,0.75,0],[0.5,1,0],[0,0.75,0],[0,0.5,0],[0,0.25,0]];resizable=0;" parent="1" vertex="1">
            <mxGeometry x="120" y="350" width="240" height="160" as="geometry" />
          </mxCell>
        </object>
        <object placeholders="1" c4Name="MeFit - Gerenciamento de consultorias em educação física" c4Type="ContainerScopeBoundary" c4Application="Aplicação" label="&lt;font style=&quot;font-size: 16px&quot;&gt;&lt;b&gt;&lt;div style=&quot;text-align: left&quot;&gt;%c4Name%&lt;/div&gt;&lt;/b&gt;&lt;/font&gt;&lt;div style=&quot;text-align: left&quot;&gt;[%c4Application%]&lt;/div&gt;" id="nOdenu87jLlAO-vVyZeA-7">
          <mxCell style="rounded=1;fontSize=11;whiteSpace=wrap;html=1;dashed=1;arcSize=20;fillColor=none;strokeColor=#666666;fontColor=#333333;labelBackgroundColor=none;align=left;verticalAlign=bottom;labelBorderColor=none;spacingTop=0;spacing=10;dashPattern=8 4;metaEdit=1;rotatable=0;perimeter=rectanglePerimeter;noLabel=0;labelPadding=0;allowArrows=0;connectable=0;expand=0;recursiveResize=0;editable=1;pointerEvents=0;absoluteArcSize=1;points=[[0.25,0,0],[0.5,0,0],[0.75,0,0],[1,0.25,0],[1,0.5,0],[1,0.75,0],[0.75,1,0],[0.5,1,0],[0.25,1,0],[0,0.75,0],[0,0.5,0],[0,0.25,0]];" parent="1" vertex="1">
            <mxGeometry x="13" y="300" width="1147" height="520" as="geometry" />
          </mxCell>
        </object>
        <mxCell id="nOdenu87jLlAO-vVyZeA-19" style="edgeStyle=orthogonalEdgeStyle;rounded=0;jumpStyle=line;jumpSize=6;orthogonalLoop=1;jettySize=auto;html=1;entryX=1;entryY=0.5;entryDx=0;entryDy=0;entryPerimeter=0;dashed=1;fontSize=14;endSize=6;targetPerimeterSpacing=0;strokeWidth=1;exitX=0.5;exitY=0;exitDx=0;exitDy=0;exitPerimeter=0;" parent="1" source="nOdenu87jLlAO-vVyZeA-11" target="nOdenu87jLlAO-vVyZeA-17" edge="1">
          <mxGeometry relative="1" as="geometry" />
        </mxCell>
        <mxCell id="nOdenu87jLlAO-vVyZeA-20" value="&lt;span style=&quot;font-size: 15px&quot;&gt;&lt;b&gt;Envia o treino/avaliação física em PDF&lt;/b&gt;&lt;br&gt;[SMTP]&lt;br&gt;&lt;/span&gt;" style="edgeLabel;html=1;align=center;verticalAlign=middle;resizable=0;points=[];fontSize=14;" parent="nOdenu87jLlAO-vVyZeA-19" vertex="1" connectable="0">
          <mxGeometry x="0.1429" y="-3" relative="1" as="geometry">
            <mxPoint x="4" y="3" as="offset" />
          </mxGeometry>
        </mxCell>
        <object placeholders="1" c4Name="Sistema de e-mail" c4Type="Software System" c4Description="Serviço de e-mail Brevo" label="&lt;font style=&quot;font-size: 16px&quot;&gt;&lt;b&gt;%c4Name%&lt;/b&gt;&lt;/font&gt;&lt;div&gt;[%c4Type%]&lt;/div&gt;&lt;br&gt;&lt;div&gt;&lt;font style=&quot;font-size: 11px&quot;&gt;&lt;font color=&quot;#cccccc&quot;&gt;%c4Description%&lt;/font&gt;&lt;/div&gt;" id="nOdenu87jLlAO-vVyZeA-11">
          <mxCell style="rounded=1;whiteSpace=wrap;html=1;labelBackgroundColor=none;fillColor=#8C8496;fontColor=#ffffff;align=center;arcSize=10;strokeColor=#736782;metaEdit=1;resizable=0;points=[[0.25,0,0],[0.5,0,0],[0.75,0,0],[1,0.25,0],[1,0.5,0],[1,0.75,0],[0.75,1,0],[0.5,1,0],[0.25,1,0],[0,0.75,0],[0,0.5,0],[0,0.25,0]];" parent="1" vertex="1">
            <mxGeometry x="890" y="120" width="240" height="120" as="geometry" />
          </mxCell>
        </object>
        <mxCell id="nOdenu87jLlAO-vVyZeA-16" style="edgeStyle=orthogonalEdgeStyle;rounded=0;jumpStyle=line;jumpSize=6;orthogonalLoop=1;jettySize=auto;html=1;dashed=1;fontSize=14;endSize=6;targetPerimeterSpacing=0;strokeWidth=1;entryX=0.5;entryY=0;entryDx=0;entryDy=0;entryPerimeter=0;" parent="1" source="nOdenu87jLlAO-vVyZeA-15" target="nOdenu87jLlAO-vVyZeA-6" edge="1">
          <mxGeometry relative="1" as="geometry">
            <mxPoint x="130" y="230" as="targetPoint" />
          </mxGeometry>
        </mxCell>
        <mxCell id="nOdenu87jLlAO-vVyZeA-23" value="&lt;b style=&quot;font-size: 15px&quot;&gt;Utiliza&lt;/b&gt;&lt;br style=&quot;font-size: 15px&quot;&gt;&lt;span style=&quot;font-size: 15px&quot;&gt;[HTTPS]&lt;/span&gt;" style="edgeLabel;html=1;align=center;verticalAlign=middle;resizable=0;points=[];fontSize=14;" parent="nOdenu87jLlAO-vVyZeA-16" vertex="1" connectable="0">
          <mxGeometry x="-0.136" y="2" relative="1" as="geometry">
            <mxPoint x="-43" y="-8" as="offset" />
          </mxGeometry>
        </mxCell>
        <object placeholders="1" c4Name="Personal Trainer" c4Type="Person" c4Description="Personal Trainer cadastrado no sistema" label="&lt;font style=&quot;font-size: 16px&quot;&gt;&lt;b&gt;%c4Name%&lt;/b&gt;&lt;/font&gt;&lt;div&gt;[%c4Type%]&lt;/div&gt;&lt;br&gt;&lt;div&gt;&lt;font style=&quot;font-size: 11px&quot;&gt;&lt;font color=&quot;#cccccc&quot;&gt;%c4Description%&lt;/font&gt;&lt;/div&gt;" id="nOdenu87jLlAO-vVyZeA-15">
          <mxCell style="html=1;fontSize=11;dashed=0;whitespace=wrap;fillColor=#083F75;strokeColor=#06315C;fontColor=#ffffff;shape=mxgraph.c4.person2;align=center;metaEdit=1;points=[[0.5,0,0],[1,0.5,0],[1,0.75,0],[0.75,1,0],[0.5,1,0],[0.25,1,0],[0,0.75,0],[0,0.5,0]];resizable=0;" parent="1" vertex="1">
            <mxGeometry width="200" height="180" as="geometry" />
          </mxCell>
        </object>
        <mxCell id="nOdenu87jLlAO-vVyZeA-18" style="edgeStyle=orthogonalEdgeStyle;rounded=0;jumpStyle=line;jumpSize=6;orthogonalLoop=1;jettySize=auto;html=1;entryX=0.5;entryY=0;entryDx=0;entryDy=0;entryPerimeter=0;dashed=1;fontSize=14;endSize=6;targetPerimeterSpacing=0;strokeWidth=1;" parent="1" source="nOdenu87jLlAO-vVyZeA-17" target="nOdenu87jLlAO-vVyZeA-6" edge="1">
          <mxGeometry relative="1" as="geometry" />
        </mxCell>
        <mxCell id="nOdenu87jLlAO-vVyZeA-21" value="&lt;span style=&quot;font-size: 15px&quot;&gt;&lt;b&gt;Utiliza&lt;/b&gt;&lt;br&gt;[HTTPS]&lt;br&gt;&lt;/span&gt;" style="edgeLabel;html=1;align=center;verticalAlign=middle;resizable=0;points=[];fontSize=14;" parent="nOdenu87jLlAO-vVyZeA-18" vertex="1" connectable="0">
          <mxGeometry x="-0.454" y="-2" relative="1" as="geometry">
            <mxPoint x="10" y="-9" as="offset" />
          </mxGeometry>
        </mxCell>
        <object placeholders="1" c4Name="Aluno" c4Type="Person" c4Description="Aluno cadastrado por um professor" label="&lt;font style=&quot;font-size: 16px&quot;&gt;&lt;b&gt;%c4Name%&lt;/b&gt;&lt;/font&gt;&lt;div&gt;[%c4Type%]&lt;/div&gt;&lt;br&gt;&lt;div&gt;&lt;font style=&quot;font-size: 11px&quot;&gt;&lt;font color=&quot;#cccccc&quot;&gt;%c4Description%&lt;/font&gt;&lt;/div&gt;" id="nOdenu87jLlAO-vVyZeA-17">
          <mxCell style="html=1;fontSize=11;dashed=0;whitespace=wrap;fillColor=#083F75;strokeColor=#06315C;fontColor=#ffffff;shape=mxgraph.c4.person2;align=center;metaEdit=1;points=[[0.5,0,0],[1,0.5,0],[1,0.75,0],[0.75,1,0],[0.5,1,0],[0.25,1,0],[0,0.75,0],[0,0.5,0]];resizable=0;" parent="1" vertex="1">
            <mxGeometry x="266.5" width="200" height="180" as="geometry" />
          </mxCell>
        </object>
        <object placeholders="1" c4Type="Base de dados" c4Container="Container " c4Technology="SQL Server" c4Description="Provê o armazenamento e recuperação dos dados da aplicação" label="&lt;font style=&quot;font-size: 16px&quot;&gt;&lt;b&gt;%c4Type%&lt;/font&gt;&lt;div&gt;[%c4Container%:&amp;nbsp;%c4Technology%]&lt;/div&gt;&lt;br&gt;&lt;div&gt;&lt;font style=&quot;font-size: 11px&quot;&gt;&lt;font color=&quot;#E6E6E6&quot;&gt;%c4Description%&lt;/font&gt;&lt;/div&gt;" id="axH6FzbFWB7dlb7QHLDB-1">
          <mxCell style="shape=cylinder3;size=15;whiteSpace=wrap;html=1;boundedLbl=1;rounded=0;labelBackgroundColor=none;fillColor=#23A2D9;fontSize=12;fontColor=#ffffff;align=center;strokeColor=#0E7DAD;metaEdit=1;points=[[0.5,0,0],[1,0.25,0],[1,0.5,0],[1,0.75,0],[0.5,1,0],[0,0.75,0],[0,0.5,0],[0,0.25,0]];resizable=0;" parent="1" vertex="1">
            <mxGeometry x="630" y="620" width="240" height="120" as="geometry" />
          </mxCell>
        </object>
        <mxCell id="axH6FzbFWB7dlb7QHLDB-25" style="edgeStyle=orthogonalEdgeStyle;rounded=0;orthogonalLoop=1;jettySize=auto;html=1;exitX=0.5;exitY=1;exitDx=0;exitDy=0;exitPerimeter=0;dashed=1;entryX=0.5;entryY=0;entryDx=0;entryDy=0;entryPerimeter=0;" parent="1" source="axH6FzbFWB7dlb7QHLDB-17" target="axH6FzbFWB7dlb7QHLDB-1" edge="1">
          <mxGeometry relative="1" as="geometry">
            <mxPoint x="1030" y="510" as="sourcePoint" />
          </mxGeometry>
        </mxCell>
        <mxCell id="6cFfUsFQjrernP346tFi-4" style="edgeStyle=orthogonalEdgeStyle;rounded=0;orthogonalLoop=1;jettySize=auto;html=1;entryX=0.5;entryY=1;entryDx=0;entryDy=0;entryPerimeter=0;" edge="1" parent="1" source="axH6FzbFWB7dlb7QHLDB-17" target="nOdenu87jLlAO-vVyZeA-11">
          <mxGeometry relative="1" as="geometry" />
        </mxCell>
        <object placeholders="1" c4Name="Mefit - Backend" c4Type="Restful API" c4Technology="SpringBoot" c4Description="MeFit Sistema de gerenciamento de avaliações físicas e sessões de treinamento, envio de relatórios e e-mails" label="&lt;font style=&quot;font-size: 16px&quot;&gt;&lt;b&gt;%c4Name%&lt;/b&gt;&lt;/font&gt;&lt;div&gt;[%c4Type%: %c4Technology%]&lt;/div&gt;&lt;br&gt;&lt;div&gt;&lt;font style=&quot;font-size: 11px&quot;&gt;&lt;font color=&quot;#E6E6E6&quot;&gt;%c4Description%&lt;/font&gt;&lt;/div&gt;" id="axH6FzbFWB7dlb7QHLDB-17">
          <mxCell style="rounded=1;whiteSpace=wrap;html=1;fontSize=11;labelBackgroundColor=none;fillColor=#23A2D9;fontColor=#ffffff;align=center;arcSize=10;strokeColor=#0E7DAD;metaEdit=1;resizable=0;points=[[0.25,0,0],[0.5,0,0],[0.75,0,0],[1,0.25,0],[1,0.5,0],[1,0.75,0],[0.75,1,0],[0.5,1,0],[0.25,1,0],[0,0.75,0],[0,0.5,0],[0,0.25,0]];" parent="1" vertex="1">
            <mxGeometry x="630" y="370" width="240" height="120" as="geometry" />
          </mxCell>
        </object>
      </root>
    </mxGraphModel>
  </diagram>
  <diagram id="M_ZIJAvs8FO6TmEhlcp7" name="Component">
    <mxGraphModel dx="1793" dy="950" grid="1" gridSize="10" guides="1" tooltips="1" connect="1" arrows="1" fold="1" page="1" pageScale="1" pageWidth="1169" pageHeight="827" math="0" shadow="0">
      <root>
        <mxCell id="0" />
        <mxCell id="1" parent="0" />
        <mxCell id="-uF1X4aE-N4ZRR87Buw_-9" value="&lt;p style=&quot;margin:0px;margin-top:6px;text-align:center;&quot;&gt;&lt;b&gt;Spring Framework&lt;/b&gt;&lt;/p&gt;&lt;hr&gt;&lt;p style=&quot;margin:0px;margin-left:8px;&quot;&gt;&lt;br&gt;&lt;/p&gt;" style="align=left;overflow=fill;html=1;dropTarget=0;fillColor=none;movable=1;resizable=1;rotatable=1;deletable=1;editable=1;locked=0;connectable=1;" vertex="1" parent="1">
          <mxGeometry x="40" y="240" width="1090" height="420" as="geometry" />
        </mxCell>
        <mxCell id="-uF1X4aE-N4ZRR87Buw_-10" value="" style="shape=component;jettyWidth=8;jettyHeight=4;" vertex="1" parent="-uF1X4aE-N4ZRR87Buw_-9">
          <mxGeometry x="1" width="20" height="20" relative="1" as="geometry">
            <mxPoint x="-24" y="4" as="offset" />
          </mxGeometry>
        </mxCell>
        <mxCell id="J5GGfA_-_qZgzr_YageC-22" value="&lt;font style=&quot;font-size: 17px&quot;&gt;Diagrama de componentes&lt;/font&gt;" style="shape=umlFrame;whiteSpace=wrap;html=1;fontSize=13;width=220;height=30;movable=0;resizable=0;rotatable=0;deletable=0;editable=0;locked=1;connectable=0;" parent="1" vertex="1">
          <mxGeometry x="10" y="9" width="1150" height="810" as="geometry" />
        </mxCell>
        <mxCell id="J5GGfA_-_qZgzr_YageC-23" value="«Annotation»&lt;br&gt;&lt;b&gt;Aplicação WEB&lt;/b&gt;" style="html=1;dropTarget=0;fontSize=13;" parent="1" vertex="1">
          <mxGeometry x="40" y="60" width="180" height="90" as="geometry" />
        </mxCell>
        <mxCell id="J5GGfA_-_qZgzr_YageC-24" value="" style="shape=module;jettyWidth=8;jettyHeight=4;fontSize=13;" parent="J5GGfA_-_qZgzr_YageC-23" vertex="1">
          <mxGeometry x="1" width="20" height="20" relative="1" as="geometry">
            <mxPoint x="-27" y="7" as="offset" />
          </mxGeometry>
        </mxCell>
        <mxCell id="-uF1X4aE-N4ZRR87Buw_-23" style="edgeStyle=orthogonalEdgeStyle;rounded=0;orthogonalLoop=1;jettySize=auto;html=1;endArrow=none;endFill=0;startArrow=none;" edge="1" parent="1" source="-uF1X4aE-N4ZRR87Buw_-24" target="-uF1X4aE-N4ZRR87Buw_-7">
          <mxGeometry relative="1" as="geometry" />
        </mxCell>
        <mxCell id="C1iq2kKqSlti3pXUFgxO-3" value="«spring-boot-application»&lt;br&gt;&lt;b&gt;MeFit API&lt;/b&gt;" style="html=1;dropTarget=0;fontSize=13;" parent="1" vertex="1">
          <mxGeometry x="100" y="300" width="180" height="90" as="geometry" />
        </mxCell>
        <mxCell id="C1iq2kKqSlti3pXUFgxO-4" value="" style="shape=module;jettyWidth=8;jettyHeight=4;fontSize=13;" parent="C1iq2kKqSlti3pXUFgxO-3" vertex="1">
          <mxGeometry x="1" width="20" height="20" relative="1" as="geometry">
            <mxPoint x="-27" y="7" as="offset" />
          </mxGeometry>
        </mxCell>
        <mxCell id="IqrH2UiqfEKOOviaKKkg-7" value="«database»&lt;br&gt;&lt;b&gt;PostgreSQL/H2&lt;/b&gt;" style="html=1;dropTarget=0;fontSize=13;" parent="1" vertex="1">
          <mxGeometry x="100" y="700" width="180" height="90" as="geometry" />
        </mxCell>
        <mxCell id="IqrH2UiqfEKOOviaKKkg-8" value="" style="shape=module;jettyWidth=8;jettyHeight=4;fontSize=13;" parent="IqrH2UiqfEKOOviaKKkg-7" vertex="1">
          <mxGeometry x="1" width="20" height="20" relative="1" as="geometry">
            <mxPoint x="-27" y="7" as="offset" />
          </mxGeometry>
        </mxCell>
        <mxCell id="i1NXU-KZ_IKytfmqDSGa-1" value="" style="shape=providedRequiredInterface;html=1;verticalLabelPosition=bottom;sketch=0;rotation=-180;" parent="1" vertex="1">
          <mxGeometry x="370" y="170" width="20" height="20" as="geometry" />
        </mxCell>
        <mxCell id="i1NXU-KZ_IKytfmqDSGa-8" value="" style="endArrow=none;html=1;edgeStyle=orthogonalEdgeStyle;rounded=0;exitX=1;exitY=0.5;exitDx=0;exitDy=0;entryX=1;entryY=0.5;entryDx=0;entryDy=0;entryPerimeter=0;" parent="1" source="J5GGfA_-_qZgzr_YageC-23" target="i1NXU-KZ_IKytfmqDSGa-1" edge="1">
          <mxGeometry relative="1" as="geometry">
            <mxPoint x="420" y="100" as="sourcePoint" />
            <mxPoint x="580" y="100" as="targetPoint" />
          </mxGeometry>
        </mxCell>
        <mxCell id="i1NXU-KZ_IKytfmqDSGa-11" value="" style="endArrow=none;html=1;edgeStyle=orthogonalEdgeStyle;rounded=0;exitX=0;exitY=0.5;exitDx=0;exitDy=0;exitPerimeter=0;" parent="1" source="i1NXU-KZ_IKytfmqDSGa-1" edge="1">
          <mxGeometry relative="1" as="geometry">
            <mxPoint x="470" y="110" as="sourcePoint" />
            <mxPoint x="600" y="240" as="targetPoint" />
          </mxGeometry>
        </mxCell>
        <mxCell id="-uF1X4aE-N4ZRR87Buw_-31" style="edgeStyle=orthogonalEdgeStyle;rounded=0;orthogonalLoop=1;jettySize=auto;html=1;endArrow=classic;endFill=1;dashed=1;" edge="1" parent="1" source="-uF1X4aE-N4ZRR87Buw_-7" target="IqrH2UiqfEKOOviaKKkg-7">
          <mxGeometry relative="1" as="geometry" />
        </mxCell>
        <mxCell id="-uF1X4aE-N4ZRR87Buw_-7" value="«library»&lt;br&gt;&lt;b&gt;Spring Data JPA&lt;/b&gt;" style="html=1;dropTarget=0;fontSize=13;" vertex="1" parent="1">
          <mxGeometry x="100" y="523" width="180" height="90" as="geometry" />
        </mxCell>
        <mxCell id="-uF1X4aE-N4ZRR87Buw_-8" value="" style="shape=module;jettyWidth=8;jettyHeight=4;fontSize=13;" vertex="1" parent="-uF1X4aE-N4ZRR87Buw_-7">
          <mxGeometry x="1" width="20" height="20" relative="1" as="geometry">
            <mxPoint x="-27" y="7" as="offset" />
          </mxGeometry>
        </mxCell>
        <mxCell id="-uF1X4aE-N4ZRR87Buw_-17" style="edgeStyle=orthogonalEdgeStyle;rounded=0;orthogonalLoop=1;jettySize=auto;html=1;entryX=0.5;entryY=0;entryDx=0;entryDy=0;endArrow=none;endFill=0;startArrow=none;exitX=1;exitY=0.5;exitDx=0;exitDy=0;exitPerimeter=0;" edge="1" parent="1" source="-uF1X4aE-N4ZRR87Buw_-19" target="-uF1X4aE-N4ZRR87Buw_-15">
          <mxGeometry relative="1" as="geometry" />
        </mxCell>
        <mxCell id="-uF1X4aE-N4ZRR87Buw_-26" style="edgeStyle=orthogonalEdgeStyle;rounded=0;orthogonalLoop=1;jettySize=auto;html=1;endArrow=none;endFill=0;exitX=1;exitY=0.5;exitDx=0;exitDy=0;startArrow=none;exitPerimeter=0;entryX=1.004;entryY=0.106;entryDx=0;entryDy=0;entryPerimeter=0;" edge="1" parent="1" source="-uF1X4aE-N4ZRR87Buw_-42" target="-uF1X4aE-N4ZRR87Buw_-7">
          <mxGeometry relative="1" as="geometry">
            <mxPoint x="280" y="540" as="targetPoint" />
            <Array as="points">
              <mxPoint x="450" y="453" />
              <mxPoint x="450" y="533" />
            </Array>
          </mxGeometry>
        </mxCell>
        <mxCell id="-uF1X4aE-N4ZRR87Buw_-37" style="edgeStyle=orthogonalEdgeStyle;rounded=0;orthogonalLoop=1;jettySize=auto;html=1;entryX=0.5;entryY=1;entryDx=0;entryDy=0;dashed=1;endArrow=classic;endFill=1;exitX=0.5;exitY=0;exitDx=0;exitDy=0;" edge="1" parent="1" source="-uF1X4aE-N4ZRR87Buw_-11" target="-uF1X4aE-N4ZRR87Buw_-35">
          <mxGeometry relative="1" as="geometry" />
        </mxCell>
        <mxCell id="-uF1X4aE-N4ZRR87Buw_-11" value="«spring-scheduler»&lt;br&gt;&lt;b&gt;Gerador de relatórios&lt;/b&gt;" style="html=1;dropTarget=0;fontSize=13;" vertex="1" parent="1">
          <mxGeometry x="700" y="386" width="180" height="90" as="geometry" />
        </mxCell>
        <mxCell id="-uF1X4aE-N4ZRR87Buw_-12" value="" style="shape=module;jettyWidth=8;jettyHeight=4;fontSize=13;" vertex="1" parent="-uF1X4aE-N4ZRR87Buw_-11">
          <mxGeometry x="1" width="20" height="20" relative="1" as="geometry">
            <mxPoint x="-27" y="7" as="offset" />
          </mxGeometry>
        </mxCell>
        <mxCell id="-uF1X4aE-N4ZRR87Buw_-18" style="edgeStyle=orthogonalEdgeStyle;rounded=0;orthogonalLoop=1;jettySize=auto;html=1;entryX=0.5;entryY=1;entryDx=0;entryDy=0;endArrow=none;endFill=0;startArrow=none;exitX=1;exitY=0.5;exitDx=0;exitDy=0;exitPerimeter=0;" edge="1" parent="1" source="-uF1X4aE-N4ZRR87Buw_-21" target="-uF1X4aE-N4ZRR87Buw_-15">
          <mxGeometry relative="1" as="geometry" />
        </mxCell>
        <mxCell id="-uF1X4aE-N4ZRR87Buw_-34" style="edgeStyle=orthogonalEdgeStyle;rounded=0;orthogonalLoop=1;jettySize=auto;html=1;entryX=0.5;entryY=0;entryDx=0;entryDy=0;dashed=1;endArrow=open;endFill=0;" edge="1" parent="1" source="-uF1X4aE-N4ZRR87Buw_-13" target="-uF1X4aE-N4ZRR87Buw_-32">
          <mxGeometry relative="1" as="geometry" />
        </mxCell>
        <mxCell id="-uF1X4aE-N4ZRR87Buw_-39" style="edgeStyle=orthogonalEdgeStyle;rounded=0;orthogonalLoop=1;jettySize=auto;html=1;exitX=1;exitY=0.5;exitDx=0;exitDy=0;endArrow=none;endFill=0;startArrow=none;exitPerimeter=0;entryX=1.004;entryY=0.883;entryDx=0;entryDy=0;entryPerimeter=0;" edge="1" parent="1" source="-uF1X4aE-N4ZRR87Buw_-40" target="-uF1X4aE-N4ZRR87Buw_-7">
          <mxGeometry relative="1" as="geometry">
            <mxPoint x="270" y="590" as="targetPoint" />
          </mxGeometry>
        </mxCell>
        <mxCell id="-uF1X4aE-N4ZRR87Buw_-13" value="«spring-scheduler»&lt;br&gt;&lt;b&gt;Envio de e-mails&lt;/b&gt;" style="html=1;dropTarget=0;fontSize=13;" vertex="1" parent="1">
          <mxGeometry x="700" y="529" width="180" height="90" as="geometry" />
        </mxCell>
        <mxCell id="-uF1X4aE-N4ZRR87Buw_-14" value="" style="shape=module;jettyWidth=8;jettyHeight=4;fontSize=13;" vertex="1" parent="-uF1X4aE-N4ZRR87Buw_-13">
          <mxGeometry x="1" width="20" height="20" relative="1" as="geometry">
            <mxPoint x="-27" y="7" as="offset" />
          </mxGeometry>
        </mxCell>
        <mxCell id="-uF1X4aE-N4ZRR87Buw_-15" value="«framework»&lt;br&gt;&lt;b&gt;SpringSchduler&lt;/b&gt;" style="html=1;dropTarget=0;fontSize=13;" vertex="1" parent="1">
          <mxGeometry x="940" y="434" width="180" height="90" as="geometry" />
        </mxCell>
        <mxCell id="-uF1X4aE-N4ZRR87Buw_-16" value="" style="shape=module;jettyWidth=8;jettyHeight=4;fontSize=13;" vertex="1" parent="-uF1X4aE-N4ZRR87Buw_-15">
          <mxGeometry x="1" width="20" height="20" relative="1" as="geometry">
            <mxPoint x="-27" y="7" as="offset" />
          </mxGeometry>
        </mxCell>
        <mxCell id="-uF1X4aE-N4ZRR87Buw_-20" value="" style="edgeStyle=orthogonalEdgeStyle;rounded=0;orthogonalLoop=1;jettySize=auto;html=1;entryX=0;entryY=0.5;entryDx=0;entryDy=0;endArrow=none;endFill=0;entryPerimeter=0;exitX=1;exitY=0.25;exitDx=0;exitDy=0;" edge="1" parent="1" source="-uF1X4aE-N4ZRR87Buw_-11" target="-uF1X4aE-N4ZRR87Buw_-19">
          <mxGeometry relative="1" as="geometry">
            <mxPoint x="870" y="409" as="sourcePoint" />
            <mxPoint x="1010" y="374" as="targetPoint" />
          </mxGeometry>
        </mxCell>
        <mxCell id="-uF1X4aE-N4ZRR87Buw_-19" value="" style="shape=providedRequiredInterface;html=1;verticalLabelPosition=bottom;sketch=0;rotation=0;" vertex="1" parent="1">
          <mxGeometry x="970" y="399" width="20" height="20" as="geometry" />
        </mxCell>
        <mxCell id="-uF1X4aE-N4ZRR87Buw_-22" value="" style="edgeStyle=orthogonalEdgeStyle;rounded=0;orthogonalLoop=1;jettySize=auto;html=1;entryX=0;entryY=0.5;entryDx=0;entryDy=0;endArrow=none;endFill=0;entryPerimeter=0;exitX=1;exitY=0.25;exitDx=0;exitDy=0;" edge="1" parent="1" source="-uF1X4aE-N4ZRR87Buw_-13" target="-uF1X4aE-N4ZRR87Buw_-21">
          <mxGeometry relative="1" as="geometry">
            <mxPoint x="880" y="552" as="sourcePoint" />
            <mxPoint x="1010" y="464" as="targetPoint" />
          </mxGeometry>
        </mxCell>
        <mxCell id="-uF1X4aE-N4ZRR87Buw_-21" value="" style="shape=providedRequiredInterface;html=1;verticalLabelPosition=bottom;sketch=0;rotation=0;" vertex="1" parent="1">
          <mxGeometry x="980" y="542" width="20" height="20" as="geometry" />
        </mxCell>
        <mxCell id="-uF1X4aE-N4ZRR87Buw_-25" value="" style="edgeStyle=orthogonalEdgeStyle;rounded=0;orthogonalLoop=1;jettySize=auto;html=1;endArrow=none;endFill=0;" edge="1" parent="1" source="C1iq2kKqSlti3pXUFgxO-3" target="-uF1X4aE-N4ZRR87Buw_-24">
          <mxGeometry relative="1" as="geometry">
            <mxPoint x="190" y="390" as="sourcePoint" />
            <mxPoint x="190" y="490" as="targetPoint" />
          </mxGeometry>
        </mxCell>
        <mxCell id="-uF1X4aE-N4ZRR87Buw_-24" value="" style="shape=providedRequiredInterface;html=1;verticalLabelPosition=bottom;sketch=0;rotation=90;" vertex="1" parent="1">
          <mxGeometry x="180" y="460" width="20" height="20" as="geometry" />
        </mxCell>
        <mxCell id="-uF1X4aE-N4ZRR87Buw_-32" value="«library»&lt;br&gt;&lt;b&gt;JavaMail API&lt;/b&gt;" style="html=1;dropTarget=0;fontSize=13;" vertex="1" parent="1">
          <mxGeometry x="700" y="710" width="180" height="90" as="geometry" />
        </mxCell>
        <mxCell id="-uF1X4aE-N4ZRR87Buw_-33" value="" style="shape=module;jettyWidth=8;jettyHeight=4;fontSize=13;" vertex="1" parent="-uF1X4aE-N4ZRR87Buw_-32">
          <mxGeometry x="1" width="20" height="20" relative="1" as="geometry">
            <mxPoint x="-27" y="7" as="offset" />
          </mxGeometry>
        </mxCell>
        <mxCell id="-uF1X4aE-N4ZRR87Buw_-35" value="«library»&lt;br&gt;&lt;b&gt;Itext PDF&lt;/b&gt;" style="html=1;dropTarget=0;fontSize=13;" vertex="1" parent="1">
          <mxGeometry x="700" y="80" width="180" height="90" as="geometry" />
        </mxCell>
        <mxCell id="-uF1X4aE-N4ZRR87Buw_-36" value="" style="shape=module;jettyWidth=8;jettyHeight=4;fontSize=13;" vertex="1" parent="-uF1X4aE-N4ZRR87Buw_-35">
          <mxGeometry x="1" width="20" height="20" relative="1" as="geometry">
            <mxPoint x="-27" y="7" as="offset" />
          </mxGeometry>
        </mxCell>
        <mxCell id="-uF1X4aE-N4ZRR87Buw_-41" value="" style="edgeStyle=orthogonalEdgeStyle;rounded=0;orthogonalLoop=1;jettySize=auto;html=1;exitX=0;exitY=0.75;exitDx=0;exitDy=0;entryX=0;entryY=0.5;entryDx=0;entryDy=0;endArrow=none;endFill=0;entryPerimeter=0;" edge="1" parent="1" source="-uF1X4aE-N4ZRR87Buw_-13" target="-uF1X4aE-N4ZRR87Buw_-40">
          <mxGeometry relative="1" as="geometry">
            <mxPoint x="560" y="593" as="sourcePoint" />
            <mxPoint x="280" y="593" as="targetPoint" />
          </mxGeometry>
        </mxCell>
        <mxCell id="-uF1X4aE-N4ZRR87Buw_-40" value="" style="shape=providedRequiredInterface;html=1;verticalLabelPosition=bottom;sketch=0;rotation=-180;" vertex="1" parent="1">
          <mxGeometry x="500" y="613" width="20" height="20" as="geometry" />
        </mxCell>
        <mxCell id="-uF1X4aE-N4ZRR87Buw_-43" value="" style="edgeStyle=orthogonalEdgeStyle;rounded=0;orthogonalLoop=1;jettySize=auto;html=1;endArrow=none;endFill=0;entryX=0;entryY=0.5;entryDx=0;entryDy=0;entryPerimeter=0;exitX=0;exitY=0.75;exitDx=0;exitDy=0;" edge="1" parent="1" source="-uF1X4aE-N4ZRR87Buw_-11" target="-uF1X4aE-N4ZRR87Buw_-42">
          <mxGeometry relative="1" as="geometry">
            <mxPoint x="280" y="546" as="targetPoint" />
            <mxPoint x="550" y="450" as="sourcePoint" />
          </mxGeometry>
        </mxCell>
        <mxCell id="-uF1X4aE-N4ZRR87Buw_-42" value="" style="shape=providedRequiredInterface;html=1;verticalLabelPosition=bottom;sketch=0;rotation=-180;" vertex="1" parent="1">
          <mxGeometry x="545" y="443" width="20" height="20" as="geometry" />
        </mxCell>
        <mxCell id="-uF1X4aE-N4ZRR87Buw_-45" value="&lt;font style=&quot;font-size: 17px;&quot;&gt;Sessões de treinemento próximas do vencimento&lt;/font&gt;" style="text;html=1;strokeColor=none;fillColor=default;align=center;verticalAlign=middle;whiteSpace=wrap;rounded=0;fontSize=15;" vertex="1" parent="1">
          <mxGeometry x="400" y="570" width="210" height="30" as="geometry" />
        </mxCell>
        <mxCell id="-uF1X4aE-N4ZRR87Buw_-47" value="&lt;font style=&quot;font-size: 17px;&quot;&gt;Dados de sessões de&lt;br&gt;treinamento&lt;br&gt;&lt;/font&gt;" style="text;html=1;strokeColor=none;fillColor=default;align=center;verticalAlign=middle;whiteSpace=wrap;rounded=0;fontSize=15;" vertex="1" parent="1">
          <mxGeometry x="460" y="398" width="190" height="30" as="geometry" />
        </mxCell>
        <mxCell id="-uF1X4aE-N4ZRR87Buw_-48" value="&lt;font style=&quot;font-size: 17px;&quot;&gt;Dados do usuário&lt;br&gt;&lt;/font&gt;" style="text;html=1;strokeColor=none;fillColor=default;align=center;verticalAlign=middle;whiteSpace=wrap;rounded=0;fontSize=15;" vertex="1" parent="1">
          <mxGeometry x="90" y="415" width="210" height="30" as="geometry" />
        </mxCell>
      </root>
    </mxGraphModel>
  </diagram>
  <diagram id="-9jHE_69XMCwh4HVejKp" name="Code">
    <mxGraphModel dx="2049" dy="1086" grid="1" gridSize="10" guides="1" tooltips="1" connect="1" arrows="1" fold="1" page="1" pageScale="1" pageWidth="1654" pageHeight="1169" math="0" shadow="0">
      <root>
        <mxCell id="0" />
        <mxCell id="1" parent="0" />
        <mxCell id="DCAcUUc1tO906QHbe2Nc-215" value="" style="shape=folder;fontStyle=1;spacingTop=10;tabWidth=550;tabHeight=30;tabPosition=left;html=1;whiteSpace=wrap;fillColor=none;" vertex="1" parent="1">
          <mxGeometry x="10" y="10" width="1620" height="1150" as="geometry" />
        </mxCell>
        <mxCell id="DCAcUUc1tO906QHbe2Nc-1" value="&lt;p style=&quot;margin:0px;margin-top:4px;text-align:center;&quot;&gt;&lt;b&gt;ApiErrorMessage&lt;/b&gt;&lt;/p&gt;&lt;hr size=&quot;1&quot;/&gt;" style="verticalAlign=top;align=left;overflow=fill;fontSize=14;fontFamily=Helvetica;html=1;rounded=0;shadow=0;comic=0;labelBackgroundColor=none;strokeWidth=1;" vertex="1" parent="1">
          <mxGeometry x="31.25" y="1066" width="182" height="30" as="geometry" />
        </mxCell>
        <mxCell id="DCAcUUc1tO906QHbe2Nc-2" value="&lt;p style=&quot;margin:0px;margin-top:4px;text-align:center;&quot;&gt;&lt;b&gt;CustomControllerAdvice&lt;/b&gt;&lt;/p&gt;&lt;hr size=&quot;1&quot;/&gt;" style="verticalAlign=top;align=left;overflow=fill;fontSize=14;fontFamily=Helvetica;html=1;rounded=0;shadow=0;comic=0;labelBackgroundColor=none;strokeWidth=1;" vertex="1" parent="1">
          <mxGeometry x="1350.75" y="1118" width="239" height="30" as="geometry" />
        </mxCell>
        <mxCell id="DCAcUUc1tO906QHbe2Nc-3" value="&lt;p style=&quot;margin:0px;margin-top:4px;text-align:center;&quot;&gt;&lt;b&gt;DueWorkoutCronJob&lt;/b&gt;&lt;/p&gt;&lt;hr size=&quot;1&quot;/&gt;" style="verticalAlign=top;align=left;overflow=fill;fontSize=14;fontFamily=Helvetica;html=1;rounded=0;shadow=0;comic=0;labelBackgroundColor=none;strokeWidth=1;" vertex="1" parent="1">
          <mxGeometry x="994.75" y="978" width="212" height="30" as="geometry" />
        </mxCell>
        <mxCell id="DCAcUUc1tO906QHbe2Nc-4" value="&lt;p style=&quot;margin:0px;margin-top:4px;text-align:center;&quot;&gt;&lt;b&gt;EmailObject&lt;/b&gt;&lt;/p&gt;&lt;hr size=&quot;1&quot;/&gt;" style="verticalAlign=top;align=left;overflow=fill;fontSize=14;fontFamily=Helvetica;html=1;rounded=0;shadow=0;comic=0;labelBackgroundColor=none;strokeWidth=1;" vertex="1" parent="1">
          <mxGeometry x="1166" y="740.5" width="141" height="30" as="geometry" />
        </mxCell>
        <mxCell id="DCAcUUc1tO906QHbe2Nc-209" style="edgeStyle=orthogonalEdgeStyle;rounded=0;orthogonalLoop=1;jettySize=auto;html=1;entryX=0;entryY=0.5;entryDx=0;entryDy=0;" edge="1" parent="1" source="DCAcUUc1tO906QHbe2Nc-5" target="DCAcUUc1tO906QHbe2Nc-4">
          <mxGeometry relative="1" as="geometry" />
        </mxCell>
        <mxCell id="DCAcUUc1tO906QHbe2Nc-210" value="sends" style="edgeLabel;html=1;align=center;verticalAlign=middle;resizable=0;points=[];" vertex="1" connectable="0" parent="DCAcUUc1tO906QHbe2Nc-209">
          <mxGeometry x="0.075" y="-1" relative="1" as="geometry">
            <mxPoint as="offset" />
          </mxGeometry>
        </mxCell>
        <mxCell id="DCAcUUc1tO906QHbe2Nc-5" value="&lt;p style=&quot;margin:0px;margin-top:4px;text-align:center;&quot;&gt;&lt;b&gt;EmailSender&lt;/b&gt;&lt;/p&gt;&lt;hr size=&quot;1&quot;/&gt;" style="verticalAlign=top;align=left;overflow=fill;fontSize=14;fontFamily=Helvetica;html=1;rounded=0;shadow=0;comic=0;labelBackgroundColor=none;strokeWidth=1;" vertex="1" parent="1">
          <mxGeometry x="940" y="740.5" width="145" height="30" as="geometry" />
        </mxCell>
        <mxCell id="DCAcUUc1tO906QHbe2Nc-6" value="&lt;p style=&quot;margin:0px;margin-top:4px;text-align:center;&quot;&gt;&lt;i&gt;&amp;lt;&amp;lt;enumeration&amp;gt;&amp;gt;&lt;/i&gt;&lt;br/&gt;&lt;b&gt;EnumStatus&lt;/b&gt;&lt;/p&gt;&lt;hr size=&quot;1&quot;/&gt;" style="verticalAlign=top;align=left;overflow=fill;fontSize=14;fontFamily=Helvetica;html=1;rounded=0;shadow=0;comic=0;labelBackgroundColor=none;strokeWidth=1;" vertex="1" parent="1">
          <mxGeometry x="1084.75" y="190" width="142" height="35" as="geometry" />
        </mxCell>
        <mxCell id="DCAcUUc1tO906QHbe2Nc-7" value="&lt;p style=&quot;margin:0px;margin-top:4px;text-align:center;&quot;&gt;&lt;b&gt;ExerciseController&lt;/b&gt;&lt;/p&gt;&lt;hr size=&quot;1&quot;/&gt;" style="verticalAlign=top;align=left;overflow=fill;fontSize=14;fontFamily=Helvetica;html=1;rounded=0;shadow=0;comic=0;labelBackgroundColor=none;strokeWidth=1;" vertex="1" parent="1">
          <mxGeometry x="48.25" y="923" width="192" height="30" as="geometry" />
        </mxCell>
        <mxCell id="DCAcUUc1tO906QHbe2Nc-8" value="&lt;p style=&quot;margin:0px;margin-top:4px;text-align:center;&quot;&gt;&lt;b&gt;ExerciseEntity&lt;/b&gt;&lt;/p&gt;&lt;hr size=&quot;1&quot;/&gt;" style="verticalAlign=top;align=left;overflow=fill;fontSize=14;fontFamily=Helvetica;html=1;rounded=0;shadow=0;comic=0;labelBackgroundColor=none;strokeWidth=1;" vertex="1" parent="1">
          <mxGeometry x="195" y="198" width="160" height="30" as="geometry" />
        </mxCell>
        <mxCell id="DCAcUUc1tO906QHbe2Nc-9" value="&lt;p style=&quot;margin:0px;margin-top:4px;text-align:center;&quot;&gt;&lt;i&gt;&amp;lt;&amp;lt;interface&amp;gt;&amp;gt;&lt;/i&gt;&lt;br/&gt;&lt;b&gt;ExerciseMapper&lt;/b&gt;&lt;/p&gt;&lt;hr size=&quot;1&quot;/&gt;" style="verticalAlign=top;align=left;overflow=fill;fontSize=14;fontFamily=Helvetica;html=1;rounded=0;shadow=0;comic=0;labelBackgroundColor=none;strokeWidth=1;" vertex="1" parent="1">
          <mxGeometry x="330" y="885.5" width="173" height="35" as="geometry" />
        </mxCell>
        <mxCell id="DCAcUUc1tO906QHbe2Nc-10" value="&lt;p style=&quot;margin:0px;margin-top:4px;text-align:center;&quot;&gt;&lt;b&gt;ExerciseMapperImpl&lt;/b&gt;&lt;/p&gt;&lt;hr size=&quot;1&quot;/&gt;" style="verticalAlign=top;align=left;overflow=fill;fontSize=14;fontFamily=Helvetica;html=1;rounded=0;shadow=0;comic=0;labelBackgroundColor=none;strokeWidth=1;" vertex="1" parent="1">
          <mxGeometry x="314" y="978" width="205" height="30" as="geometry" />
        </mxCell>
        <mxCell id="DCAcUUc1tO906QHbe2Nc-11" value="&lt;p style=&quot;margin:0px;margin-top:4px;text-align:center;&quot;&gt;&lt;i&gt;&amp;lt;&amp;lt;interface&amp;gt;&amp;gt;&lt;/i&gt;&lt;br/&gt;&lt;b&gt;ExerciseRepository&lt;/b&gt;&lt;/p&gt;&lt;hr size=&quot;1&quot;/&gt;" style="verticalAlign=top;align=left;overflow=fill;fontSize=14;fontFamily=Helvetica;html=1;rounded=0;shadow=0;comic=0;labelBackgroundColor=none;strokeWidth=1;" vertex="1" parent="1">
          <mxGeometry x="45.25" y="740.5" width="198" height="35" as="geometry" />
        </mxCell>
        <mxCell id="DCAcUUc1tO906QHbe2Nc-12" value="&lt;p style=&quot;margin:0px;margin-top:4px;text-align:center;&quot;&gt;&lt;b&gt;ExerciseRequest&lt;/b&gt;&lt;/p&gt;&lt;hr size=&quot;1&quot;/&gt;" style="verticalAlign=top;align=left;overflow=fill;fontSize=14;fontFamily=Helvetica;html=1;rounded=0;shadow=0;comic=0;labelBackgroundColor=none;strokeWidth=1;" vertex="1" parent="1">
          <mxGeometry x="375" y="198" width="177" height="30" as="geometry" />
        </mxCell>
        <mxCell id="DCAcUUc1tO906QHbe2Nc-13" value="&lt;p style=&quot;margin:0px;margin-top:4px;text-align:center;&quot;&gt;&lt;b&gt;ExerciseResponseDTO&lt;/b&gt;&lt;/p&gt;&lt;hr size=&quot;1&quot;/&gt;" style="verticalAlign=top;align=left;overflow=fill;fontSize=14;fontFamily=Helvetica;html=1;rounded=0;shadow=0;comic=0;labelBackgroundColor=none;strokeWidth=1;" vertex="1" parent="1">
          <mxGeometry x="826" y="198" width="225" height="30" as="geometry" />
        </mxCell>
        <mxCell id="DCAcUUc1tO906QHbe2Nc-14" value="&lt;p style=&quot;margin:0px;margin-top:4px;text-align:center;&quot;&gt;&lt;b&gt;ExerciseService&lt;/b&gt;&lt;/p&gt;&lt;hr size=&quot;1&quot;/&gt;" style="verticalAlign=top;align=left;overflow=fill;fontSize=14;fontFamily=Helvetica;html=1;rounded=0;shadow=0;comic=0;labelBackgroundColor=none;strokeWidth=1;" vertex="1" parent="1">
          <mxGeometry x="58.75" y="845" width="171" height="30" as="geometry" />
        </mxCell>
        <mxCell id="DCAcUUc1tO906QHbe2Nc-15" value="&lt;p style=&quot;margin:0px;margin-top:4px;text-align:center;&quot;&gt;&lt;b&gt;MefitBackendApplication&lt;/b&gt;&lt;/p&gt;&lt;hr size=&quot;1&quot;/&gt;" style="verticalAlign=top;align=left;overflow=fill;fontSize=14;fontFamily=Helvetica;html=1;rounded=0;shadow=0;comic=0;labelBackgroundColor=none;strokeWidth=1;" vertex="1" parent="1">
          <mxGeometry x="13.5" y="593" width="243" height="30" as="geometry" />
        </mxCell>
        <mxCell id="DCAcUUc1tO906QHbe2Nc-16" value="&lt;p style=&quot;margin:0px;margin-top:4px;text-align:center;&quot;&gt;&lt;i&gt;&amp;lt;&amp;lt;enumeration&amp;gt;&amp;gt;&lt;/i&gt;&lt;br/&gt;&lt;b&gt;MuscularGroupEnum&lt;/b&gt;&lt;/p&gt;&lt;hr size=&quot;1&quot;/&gt;" style="verticalAlign=top;align=left;overflow=fill;fontSize=14;fontFamily=Helvetica;html=1;rounded=0;shadow=0;comic=0;labelBackgroundColor=none;strokeWidth=1;" vertex="1" parent="1">
          <mxGeometry x="359" y="90" width="209" height="35" as="geometry" />
        </mxCell>
        <mxCell id="DCAcUUc1tO906QHbe2Nc-17" value="&lt;p style=&quot;margin:0px;margin-top:4px;text-align:center;&quot;&gt;&lt;b&gt;SendTrainingPlanCronJob&lt;/b&gt;&lt;/p&gt;&lt;hr size=&quot;1&quot;/&gt;" style="verticalAlign=top;align=left;overflow=fill;fontSize=14;fontFamily=Helvetica;html=1;rounded=0;shadow=0;comic=0;labelBackgroundColor=none;strokeWidth=1;" vertex="1" parent="1">
          <mxGeometry x="974.75" y="560" width="252" height="30" as="geometry" />
        </mxCell>
        <mxCell id="DCAcUUc1tO906QHbe2Nc-18" value="&lt;p style=&quot;margin:0px;margin-top:4px;text-align:center;&quot;&gt;&lt;b&gt;UserController&lt;/b&gt;&lt;/p&gt;&lt;hr size=&quot;1&quot;/&gt;" style="verticalAlign=top;align=left;overflow=fill;fontSize=14;fontFamily=Helvetica;html=1;rounded=0;shadow=0;comic=0;labelBackgroundColor=none;strokeWidth=1;" vertex="1" parent="1">
          <mxGeometry x="604" y="790" width="163" height="30" as="geometry" />
        </mxCell>
        <mxCell id="DCAcUUc1tO906QHbe2Nc-19" value="&lt;p style=&quot;margin:0px;margin-top:4px;text-align:center;&quot;&gt;&lt;b&gt;UserEntity&lt;/b&gt;&lt;/p&gt;&lt;hr size=&quot;1&quot;/&gt;" style="verticalAlign=top;align=left;overflow=fill;fontSize=14;fontFamily=Helvetica;html=1;rounded=0;shadow=0;comic=0;labelBackgroundColor=none;strokeWidth=1;" vertex="1" parent="1">
          <mxGeometry x="1120" y="334" width="131" height="30" as="geometry" />
        </mxCell>
        <mxCell id="DCAcUUc1tO906QHbe2Nc-20" value="&lt;p style=&quot;margin:0px;margin-top:4px;text-align:center;&quot;&gt;&lt;i&gt;&amp;lt;&amp;lt;interface&amp;gt;&amp;gt;&lt;/i&gt;&lt;br/&gt;&lt;b&gt;UserMapper&lt;/b&gt;&lt;/p&gt;&lt;hr size=&quot;1&quot;/&gt;" style="verticalAlign=top;align=left;overflow=fill;fontSize=14;fontFamily=Helvetica;html=1;rounded=0;shadow=0;comic=0;labelBackgroundColor=none;strokeWidth=1;" vertex="1" parent="1">
          <mxGeometry x="375" y="675" width="144" height="35" as="geometry" />
        </mxCell>
        <mxCell id="DCAcUUc1tO906QHbe2Nc-21" value="&lt;p style=&quot;margin:0px;margin-top:4px;text-align:center;&quot;&gt;&lt;b&gt;UserMapperImpl&lt;/b&gt;&lt;/p&gt;&lt;hr size=&quot;1&quot;/&gt;" style="verticalAlign=top;align=left;overflow=fill;fontSize=14;fontFamily=Helvetica;html=1;rounded=0;shadow=0;comic=0;labelBackgroundColor=none;strokeWidth=1;" vertex="1" parent="1">
          <mxGeometry x="359" y="540" width="176" height="30" as="geometry" />
        </mxCell>
        <mxCell id="DCAcUUc1tO906QHbe2Nc-22" value="&lt;p style=&quot;margin:0px;margin-top:4px;text-align:center;&quot;&gt;&lt;i&gt;&amp;lt;&amp;lt;interface&amp;gt;&amp;gt;&lt;/i&gt;&lt;br/&gt;&lt;b&gt;UserRepository&lt;/b&gt;&lt;/p&gt;&lt;hr size=&quot;1&quot;/&gt;" style="verticalAlign=top;align=left;overflow=fill;fontSize=14;fontFamily=Helvetica;html=1;rounded=0;shadow=0;comic=0;labelBackgroundColor=none;strokeWidth=1;" vertex="1" parent="1">
          <mxGeometry x="601" y="560" width="169" height="35" as="geometry" />
        </mxCell>
        <mxCell id="DCAcUUc1tO906QHbe2Nc-23" value="&lt;p style=&quot;margin:0px;margin-top:4px;text-align:center;&quot;&gt;&lt;b&gt;UserRequestDTO&lt;/b&gt;&lt;/p&gt;&lt;hr size=&quot;1&quot;/&gt;" style="verticalAlign=top;align=left;overflow=fill;fontSize=14;fontFamily=Helvetica;html=1;rounded=0;shadow=0;comic=0;labelBackgroundColor=none;strokeWidth=1;" vertex="1" parent="1">
          <mxGeometry x="1388.75" y="286" width="182" height="30" as="geometry" />
        </mxCell>
        <mxCell id="DCAcUUc1tO906QHbe2Nc-24" value="&lt;p style=&quot;margin:0px;margin-top:4px;text-align:center;&quot;&gt;&lt;b&gt;UserResponseDTO&lt;/b&gt;&lt;/p&gt;&lt;hr size=&quot;1&quot;/&gt;" style="verticalAlign=top;align=left;overflow=fill;fontSize=14;fontFamily=Helvetica;html=1;rounded=0;shadow=0;comic=0;labelBackgroundColor=none;strokeWidth=1;" vertex="1" parent="1">
          <mxGeometry x="591" y="300" width="196" height="30" as="geometry" />
        </mxCell>
        <mxCell id="DCAcUUc1tO906QHbe2Nc-25" value="&lt;p style=&quot;margin:0px;margin-top:4px;text-align:center;&quot;&gt;&lt;b&gt;UserService&lt;/b&gt;&lt;/p&gt;&lt;hr size=&quot;1&quot;/&gt;" style="verticalAlign=top;align=left;overflow=fill;fontSize=14;fontFamily=Helvetica;html=1;rounded=0;shadow=0;comic=0;labelBackgroundColor=none;strokeWidth=1;" vertex="1" parent="1">
          <mxGeometry x="614.5" y="675" width="142" height="30" as="geometry" />
        </mxCell>
        <mxCell id="DCAcUUc1tO906QHbe2Nc-26" value="&lt;p style=&quot;margin:0px;margin-top:4px;text-align:center;&quot;&gt;&lt;b&gt;UserTypeEntity&lt;/b&gt;&lt;/p&gt;&lt;hr size=&quot;1&quot;/&gt;" style="verticalAlign=top;align=left;overflow=fill;fontSize=14;fontFamily=Helvetica;html=1;rounded=0;shadow=0;comic=0;labelBackgroundColor=none;strokeWidth=1;" vertex="1" parent="1">
          <mxGeometry x="1340" y="330" width="169" height="30" as="geometry" />
        </mxCell>
        <mxCell id="DCAcUUc1tO906QHbe2Nc-27" value="&lt;p style=&quot;margin:0px;margin-top:4px;text-align:center;&quot;&gt;&lt;b&gt;UserTypeRequestDTO&lt;/b&gt;&lt;/p&gt;&lt;hr size=&quot;1&quot;/&gt;" style="verticalAlign=top;align=left;overflow=fill;fontSize=14;fontFamily=Helvetica;html=1;rounded=0;shadow=0;comic=0;labelBackgroundColor=none;strokeWidth=1;" vertex="1" parent="1">
          <mxGeometry x="1369.75" y="180" width="220" height="30" as="geometry" />
        </mxCell>
        <mxCell id="DCAcUUc1tO906QHbe2Nc-28" value="&lt;p style=&quot;margin:0px;margin-top:4px;text-align:center;&quot;&gt;&lt;b&gt;UserTypeResponseDTO&lt;/b&gt;&lt;/p&gt;&lt;hr size=&quot;1&quot;/&gt;" style="verticalAlign=top;align=left;overflow=fill;fontSize=14;fontFamily=Helvetica;html=1;rounded=0;shadow=0;comic=0;labelBackgroundColor=none;strokeWidth=1;" vertex="1" parent="1">
          <mxGeometry x="572" y="198" width="234" height="30" as="geometry" />
        </mxCell>
        <mxCell id="DCAcUUc1tO906QHbe2Nc-29" value="&lt;p style=&quot;margin:0px;margin-top:4px;text-align:center;&quot;&gt;&lt;b&gt;WorkoutDayDTO&lt;/b&gt;&lt;/p&gt;&lt;hr size=&quot;1&quot;/&gt;" style="verticalAlign=top;align=left;overflow=fill;fontSize=14;fontFamily=Helvetica;html=1;rounded=0;shadow=0;comic=0;labelBackgroundColor=none;strokeWidth=1;" vertex="1" parent="1">
          <mxGeometry x="186" y="442" width="179" height="30" as="geometry" />
        </mxCell>
        <mxCell id="DCAcUUc1tO906QHbe2Nc-30" value="&lt;p style=&quot;margin:0px;margin-top:4px;text-align:center;&quot;&gt;&lt;b&gt;WorkoutDayEntity&lt;/b&gt;&lt;/p&gt;&lt;hr size=&quot;1&quot;/&gt;" style="verticalAlign=top;align=left;overflow=fill;fontSize=14;fontFamily=Helvetica;html=1;rounded=0;shadow=0;comic=0;labelBackgroundColor=none;strokeWidth=1;" vertex="1" parent="1">
          <mxGeometry x="180" y="286" width="190" height="30" as="geometry" />
        </mxCell>
        <mxCell id="DCAcUUc1tO906QHbe2Nc-32" value="&lt;p style=&quot;margin:0px;margin-top:4px;text-align:center;&quot;&gt;&lt;b&gt;WorkoutPlanController&lt;/b&gt;&lt;/p&gt;&lt;hr size=&quot;1&quot;/&gt;" style="verticalAlign=top;align=left;overflow=fill;fontSize=14;fontFamily=Helvetica;html=1;rounded=0;shadow=0;comic=0;labelBackgroundColor=none;strokeWidth=1;" vertex="1" parent="1">
          <mxGeometry x="1353.75" y="833" width="225" height="30" as="geometry" />
        </mxCell>
        <mxCell id="DCAcUUc1tO906QHbe2Nc-33" value="&lt;p style=&quot;margin:0px;margin-top:4px;text-align:center;&quot;&gt;&lt;b&gt;WorkoutPlanDTO&lt;/b&gt;&lt;/p&gt;&lt;hr size=&quot;1&quot;/&gt;" style="verticalAlign=top;align=left;overflow=fill;fontSize=14;fontFamily=Helvetica;html=1;rounded=0;shadow=0;comic=0;labelBackgroundColor=none;strokeWidth=1;" vertex="1" parent="1">
          <mxGeometry x="184" y="364" width="182" height="30" as="geometry" />
        </mxCell>
        <mxCell id="DCAcUUc1tO906QHbe2Nc-34" value="&lt;p style=&quot;margin:0px;margin-top:4px;text-align:center;&quot;&gt;&lt;b&gt;WorkoutPlanEntity&lt;/b&gt;&lt;/p&gt;&lt;hr size=&quot;1&quot;/&gt;" style="verticalAlign=top;align=left;overflow=fill;fontSize=14;fontFamily=Helvetica;html=1;rounded=0;shadow=0;comic=0;labelBackgroundColor=none;strokeWidth=1;" vertex="1" parent="1">
          <mxGeometry x="700" y="412" width="193" height="30" as="geometry" />
        </mxCell>
        <mxCell id="DCAcUUc1tO906QHbe2Nc-35" value="&lt;p style=&quot;margin:0px;margin-top:4px;text-align:center;&quot;&gt;&lt;i&gt;&amp;lt;&amp;lt;interface&amp;gt;&amp;gt;&lt;/i&gt;&lt;br/&gt;&lt;b&gt;WorkoutPlanMapper&lt;/b&gt;&lt;/p&gt;&lt;hr size=&quot;1&quot;/&gt;" style="verticalAlign=top;align=left;overflow=fill;fontSize=14;fontFamily=Helvetica;html=1;rounded=0;shadow=0;comic=0;labelBackgroundColor=none;strokeWidth=1;" vertex="1" parent="1">
          <mxGeometry x="1363.25" y="918" width="206" height="35" as="geometry" />
        </mxCell>
        <mxCell id="DCAcUUc1tO906QHbe2Nc-36" value="&lt;p style=&quot;margin:0px;margin-top:4px;text-align:center;&quot;&gt;&lt;b&gt;WorkoutPlanMapperImpl&lt;/b&gt;&lt;/p&gt;&lt;hr size=&quot;1&quot;/&gt;" style="verticalAlign=top;align=left;overflow=fill;fontSize=14;fontFamily=Helvetica;html=1;rounded=0;shadow=0;comic=0;labelBackgroundColor=none;strokeWidth=1;" vertex="1" parent="1">
          <mxGeometry x="1347.25" y="1008" width="238" height="30" as="geometry" />
        </mxCell>
        <mxCell id="DCAcUUc1tO906QHbe2Nc-37" value="&lt;p style=&quot;margin:0px;margin-top:4px;text-align:center;&quot;&gt;&lt;i&gt;&amp;lt;&amp;lt;interface&amp;gt;&amp;gt;&lt;/i&gt;&lt;br/&gt;&lt;b&gt;WorkoutPlanRepository&lt;/b&gt;&lt;/p&gt;&lt;hr size=&quot;1&quot;/&gt;" style="verticalAlign=top;align=left;overflow=fill;fontSize=14;fontFamily=Helvetica;html=1;rounded=0;shadow=0;comic=0;labelBackgroundColor=none;strokeWidth=1;" vertex="1" parent="1">
          <mxGeometry x="1350.75" y="588" width="231" height="35" as="geometry" />
        </mxCell>
        <mxCell id="DCAcUUc1tO906QHbe2Nc-39" value="&lt;p style=&quot;margin:0px;margin-top:4px;text-align:center;&quot;&gt;&lt;b&gt;WorkoutPlanService&lt;/b&gt;&lt;/p&gt;&lt;hr size=&quot;1&quot;/&gt;" style="verticalAlign=top;align=left;overflow=fill;fontSize=14;fontFamily=Helvetica;html=1;rounded=0;shadow=0;comic=0;labelBackgroundColor=none;strokeWidth=1;" vertex="1" parent="1">
          <mxGeometry x="1365.25" y="698" width="204" height="30" as="geometry" />
        </mxCell>
        <mxCell id="DCAcUUc1tO906QHbe2Nc-40" value="" style="html=1;rounded=1;edgeStyle=orthogonalEdgeStyle;dashed=0;startArrow=diamondThinstartSize=12;endArrow=openThin;endSize=12;strokeColor=#595959;exitX=0.500;exitY=0.001;exitDx=0;exitDy=0;entryX=0.500;entryY=1.001;entryDx=0;entryDy=0;" edge="1" parent="1" source="DCAcUUc1tO906QHbe2Nc-3" target="DCAcUUc1tO906QHbe2Nc-5">
          <mxGeometry width="50" height="50" relative="1" as="geometry" />
        </mxCell>
        <mxCell id="DCAcUUc1tO906QHbe2Nc-211" value="use" style="edgeLabel;html=1;align=center;verticalAlign=middle;resizable=0;points=[];" vertex="1" connectable="0" parent="DCAcUUc1tO906QHbe2Nc-40">
          <mxGeometry x="-0.2049" y="2" relative="1" as="geometry">
            <mxPoint as="offset" />
          </mxGeometry>
        </mxCell>
        <mxCell id="DCAcUUc1tO906QHbe2Nc-44" value="use" style="html=1;rounded=1;edgeStyle=orthogonalEdgeStyle;dashed=0;startArrow=diamondThinstartSize=12;endArrow=openThin;endSize=12;strokeColor=#595959;exitX=0;exitY=0.5;exitDx=0;exitDy=0;entryX=1;entryY=0.75;entryDx=0;entryDy=0;" edge="1" parent="1" source="DCAcUUc1tO906QHbe2Nc-3" target="DCAcUUc1tO906QHbe2Nc-25">
          <mxGeometry width="50" height="50" relative="1" as="geometry" />
        </mxCell>
        <mxCell id="DCAcUUc1tO906QHbe2Nc-48" value="use" style="html=1;rounded=1;edgeStyle=orthogonalEdgeStyle;dashed=0;startArrow=diamondThinstartSize=12;endArrow=openThin;endSize=12;strokeColor=#595959;exitX=1;exitY=0.5;exitDx=0;exitDy=0;entryX=0.25;entryY=1;entryDx=0;entryDy=0;" edge="1" parent="1" source="DCAcUUc1tO906QHbe2Nc-3" target="DCAcUUc1tO906QHbe2Nc-39">
          <mxGeometry width="50" height="50" relative="1" as="geometry">
            <Array as="points">
              <mxPoint x="1286" y="993" />
              <mxPoint x="1286" y="788" />
              <mxPoint x="1416" y="788" />
            </Array>
          </mxGeometry>
        </mxCell>
        <mxCell id="DCAcUUc1tO906QHbe2Nc-52" value="" style="html=1;rounded=1;edgeStyle=orthogonalEdgeStyle;dashed=0;startArrow=diamondThinstartSize=12;endArrow=openThin;endSize=12;strokeColor=#595959;exitX=1;exitY=0.5;exitDx=0;exitDy=0;entryX=0;entryY=0.75;entryDx=0;entryDy=0;" edge="1" parent="1" source="DCAcUUc1tO906QHbe2Nc-7" target="DCAcUUc1tO906QHbe2Nc-9">
          <mxGeometry width="50" height="50" relative="1" as="geometry" />
        </mxCell>
        <mxCell id="DCAcUUc1tO906QHbe2Nc-56" value="" style="html=1;rounded=1;edgeStyle=orthogonalEdgeStyle;dashed=0;startArrow=diamondThinstartSize=12;endArrow=openThin;endSize=12;strokeColor=#595959;exitX=0.500;exitY=0.001;exitDx=0;exitDy=0;entryX=0.500;entryY=1.001;entryDx=0;entryDy=0;" edge="1" parent="1" source="DCAcUUc1tO906QHbe2Nc-7" target="DCAcUUc1tO906QHbe2Nc-14">
          <mxGeometry width="50" height="50" relative="1" as="geometry" />
        </mxCell>
        <mxCell id="DCAcUUc1tO906QHbe2Nc-207" value="use" style="edgeLabel;html=1;align=center;verticalAlign=middle;resizable=0;points=[];" vertex="1" connectable="0" parent="DCAcUUc1tO906QHbe2Nc-56">
          <mxGeometry x="-0.1786" relative="1" as="geometry">
            <mxPoint as="offset" />
          </mxGeometry>
        </mxCell>
        <mxCell id="DCAcUUc1tO906QHbe2Nc-60" value="" style="html=1;rounded=1;edgeStyle=orthogonalEdgeStyle;dashed=0;startArrow=diamondThinstartSize=12;endArrow=openThin;endSize=12;strokeColor=#595959;exitX=0.500;exitY=0.002;exitDx=0;exitDy=0;entryX=0;entryY=0.25;entryDx=0;entryDy=0;" edge="1" parent="1" source="DCAcUUc1tO906QHbe2Nc-8" target="DCAcUUc1tO906QHbe2Nc-16">
          <mxGeometry width="50" height="50" relative="1" as="geometry" />
        </mxCell>
        <mxCell id="DCAcUUc1tO906QHbe2Nc-64" value="" style="html=1;rounded=1;edgeStyle=orthogonalEdgeStyle;dashed=1;startArrow=none;endArrow=block;endSize=12;strokeColor=#008200;exitX=0.500;exitY=0.001;exitDx=0;exitDy=0;entryX=0.5;entryY=1;entryDx=0;entryDy=0;" edge="1" parent="1" source="DCAcUUc1tO906QHbe2Nc-10" target="DCAcUUc1tO906QHbe2Nc-9">
          <mxGeometry width="50" height="50" relative="1" as="geometry" />
        </mxCell>
        <mxCell id="DCAcUUc1tO906QHbe2Nc-206" value="implements" style="edgeLabel;html=1;align=center;verticalAlign=middle;resizable=0;points=[];" vertex="1" connectable="0" parent="DCAcUUc1tO906QHbe2Nc-64">
          <mxGeometry x="0.691" y="-2" relative="1" as="geometry">
            <mxPoint x="-2" y="24" as="offset" />
          </mxGeometry>
        </mxCell>
        <mxCell id="DCAcUUc1tO906QHbe2Nc-65" value="" style="html=1;rounded=1;edgeStyle=orthogonalEdgeStyle;dashed=0;startArrow=diamondThinstartSize=12;endArrow=openThin;endSize=12;strokeColor=#595959;exitX=0.500;exitY=0.002;exitDx=0;exitDy=0;entryX=0.500;entryY=1.002;entryDx=0;entryDy=0;" edge="1" parent="1" source="DCAcUUc1tO906QHbe2Nc-12" target="DCAcUUc1tO906QHbe2Nc-16">
          <mxGeometry width="50" height="50" relative="1" as="geometry">
            <Array as="points" />
          </mxGeometry>
        </mxCell>
        <mxCell id="DCAcUUc1tO906QHbe2Nc-69" value="" style="html=1;rounded=1;edgeStyle=orthogonalEdgeStyle;dashed=0;startArrow=diamondThinstartSize=12;endArrow=openThin;endSize=12;strokeColor=#595959;exitX=0.500;exitY=0.002;exitDx=0;exitDy=0;entryX=1;entryY=0.5;entryDx=0;entryDy=0;" edge="1" parent="1" source="DCAcUUc1tO906QHbe2Nc-13" target="DCAcUUc1tO906QHbe2Nc-16">
          <mxGeometry width="50" height="50" relative="1" as="geometry" />
        </mxCell>
        <mxCell id="DCAcUUc1tO906QHbe2Nc-73" value="" style="html=1;rounded=1;edgeStyle=orthogonalEdgeStyle;dashed=0;startArrow=diamondThinstartSize=12;endArrow=openThin;endSize=12;strokeColor=#595959;exitX=1;exitY=0.5;exitDx=0;exitDy=0;entryX=0;entryY=0.25;entryDx=0;entryDy=0;" edge="1" parent="1" source="DCAcUUc1tO906QHbe2Nc-14" target="DCAcUUc1tO906QHbe2Nc-9">
          <mxGeometry width="50" height="50" relative="1" as="geometry" />
        </mxCell>
        <mxCell id="DCAcUUc1tO906QHbe2Nc-77" value="" style="html=1;rounded=1;edgeStyle=orthogonalEdgeStyle;dashed=0;startArrow=diamondThinstartSize=12;endArrow=openThin;endSize=12;strokeColor=#595959;exitX=0.500;exitY=0.001;exitDx=0;exitDy=0;entryX=0.500;entryY=1.001;entryDx=0;entryDy=0;" edge="1" parent="1" source="DCAcUUc1tO906QHbe2Nc-14" target="DCAcUUc1tO906QHbe2Nc-11">
          <mxGeometry width="50" height="50" relative="1" as="geometry">
            <Array as="points" />
          </mxGeometry>
        </mxCell>
        <mxCell id="DCAcUUc1tO906QHbe2Nc-208" value="use" style="edgeLabel;html=1;align=center;verticalAlign=middle;resizable=0;points=[];" vertex="1" connectable="0" parent="DCAcUUc1tO906QHbe2Nc-77">
          <mxGeometry x="0.1555" relative="1" as="geometry">
            <mxPoint as="offset" />
          </mxGeometry>
        </mxCell>
        <mxCell id="DCAcUUc1tO906QHbe2Nc-81" value="" style="html=1;rounded=1;edgeStyle=orthogonalEdgeStyle;dashed=0;startArrow=diamondThinstartSize=12;endArrow=openThin;endSize=12;strokeColor=#595959;exitX=0.5;exitY=1;exitDx=0;exitDy=0;entryX=0.5;entryY=0;entryDx=0;entryDy=0;" edge="1" parent="1" source="DCAcUUc1tO906QHbe2Nc-17" target="DCAcUUc1tO906QHbe2Nc-5">
          <mxGeometry width="50" height="50" relative="1" as="geometry" />
        </mxCell>
        <mxCell id="DCAcUUc1tO906QHbe2Nc-212" value="use" style="edgeLabel;html=1;align=center;verticalAlign=middle;resizable=0;points=[];" vertex="1" connectable="0" parent="DCAcUUc1tO906QHbe2Nc-81">
          <mxGeometry x="-0.1392" y="1" relative="1" as="geometry">
            <mxPoint as="offset" />
          </mxGeometry>
        </mxCell>
        <mxCell id="DCAcUUc1tO906QHbe2Nc-85" value="use" style="html=1;rounded=1;edgeStyle=orthogonalEdgeStyle;dashed=0;startArrow=diamondThinstartSize=12;endArrow=openThin;endSize=12;strokeColor=#595959;entryX=1;entryY=0.25;entryDx=0;entryDy=0;" edge="1" parent="1" source="DCAcUUc1tO906QHbe2Nc-17" target="DCAcUUc1tO906QHbe2Nc-25">
          <mxGeometry width="50" height="50" relative="1" as="geometry" />
        </mxCell>
        <mxCell id="DCAcUUc1tO906QHbe2Nc-89" value="use" style="html=1;rounded=1;edgeStyle=orthogonalEdgeStyle;dashed=0;startArrow=diamondThinstartSize=12;endArrow=openThin;endSize=12;strokeColor=#595959;exitX=1;exitY=0.5;exitDx=0;exitDy=0;entryX=0;entryY=0.5;entryDx=0;entryDy=0;" edge="1" parent="1" source="DCAcUUc1tO906QHbe2Nc-17" target="DCAcUUc1tO906QHbe2Nc-39">
          <mxGeometry width="50" height="50" relative="1" as="geometry" />
        </mxCell>
        <mxCell id="DCAcUUc1tO906QHbe2Nc-93" value="use" style="html=1;rounded=1;edgeStyle=orthogonalEdgeStyle;dashed=0;startArrow=diamondThinstartSize=12;endArrow=openThin;endSize=12;strokeColor=#595959;exitX=0;exitY=0.25;exitDx=0;exitDy=0;entryX=0.750;entryY=1.001;entryDx=0;entryDy=0;" edge="1" parent="1" source="DCAcUUc1tO906QHbe2Nc-18" target="DCAcUUc1tO906QHbe2Nc-20">
          <mxGeometry width="50" height="50" relative="1" as="geometry" />
        </mxCell>
        <mxCell id="DCAcUUc1tO906QHbe2Nc-97" value="use" style="html=1;rounded=1;edgeStyle=orthogonalEdgeStyle;dashed=0;startArrow=diamondThinstartSize=12;endArrow=openThin;endSize=12;strokeColor=#595959;exitX=0.500;exitY=0.001;exitDx=0;exitDy=0;entryX=0.500;entryY=1.001;entryDx=0;entryDy=0;" edge="1" parent="1" source="DCAcUUc1tO906QHbe2Nc-18" target="DCAcUUc1tO906QHbe2Nc-25">
          <mxGeometry width="50" height="50" relative="1" as="geometry" />
        </mxCell>
        <mxCell id="DCAcUUc1tO906QHbe2Nc-101" value="" style="html=1;rounded=1;edgeStyle=orthogonalEdgeStyle;dashed=0;startArrow=diamondThinstartSize=12;endArrow=openThin;endSize=12;strokeColor=#595959;exitX=0.500;exitY=0.001;exitDx=0;exitDy=0;entryX=0.75;entryY=1;entryDx=0;entryDy=0;" edge="1" parent="1" source="DCAcUUc1tO906QHbe2Nc-19" target="DCAcUUc1tO906QHbe2Nc-6">
          <mxGeometry width="50" height="50" relative="1" as="geometry" />
        </mxCell>
        <mxCell id="DCAcUUc1tO906QHbe2Nc-105" value="" style="html=1;rounded=1;edgeStyle=orthogonalEdgeStyle;dashed=0;startArrow=diamondThinstartSize=12;endArrow=openThin;endSize=12;strokeColor=#595959;exitX=0.75;exitY=1;exitDx=0;exitDy=0;entryX=0.500;entryY=1.001;entryDx=0;entryDy=0;" edge="1" parent="1" source="DCAcUUc1tO906QHbe2Nc-19" target="DCAcUUc1tO906QHbe2Nc-26">
          <mxGeometry width="50" height="50" relative="1" as="geometry" />
        </mxCell>
        <mxCell id="DCAcUUc1tO906QHbe2Nc-109" value="implements" style="html=1;rounded=1;edgeStyle=orthogonalEdgeStyle;dashed=1;startArrow=none;endArrow=block;endSize=12;strokeColor=#008200;exitX=0.5;exitY=1;exitDx=0;exitDy=0;entryX=0.5;entryY=0;entryDx=0;entryDy=0;" edge="1" parent="1" source="DCAcUUc1tO906QHbe2Nc-21" target="DCAcUUc1tO906QHbe2Nc-20">
          <mxGeometry width="50" height="50" relative="1" as="geometry" />
        </mxCell>
        <mxCell id="DCAcUUc1tO906QHbe2Nc-110" value="" style="html=1;rounded=1;edgeStyle=orthogonalEdgeStyle;dashed=0;startArrow=diamondThinstartSize=12;endArrow=openThin;endSize=12;strokeColor=#595959;exitX=0;exitY=0.5;exitDx=0;exitDy=0;entryX=1;entryY=0.75;entryDx=0;entryDy=0;" edge="1" parent="1" source="DCAcUUc1tO906QHbe2Nc-23" target="DCAcUUc1tO906QHbe2Nc-6">
          <mxGeometry width="50" height="50" relative="1" as="geometry" />
        </mxCell>
        <mxCell id="DCAcUUc1tO906QHbe2Nc-114" value="" style="html=1;rounded=1;edgeStyle=orthogonalEdgeStyle;dashed=0;startArrow=diamondThinstartSize=12;endArrow=openThin;endSize=12;strokeColor=#595959;exitX=0.500;exitY=0.001;exitDx=0;exitDy=0;entryX=0.500;entryY=1.001;entryDx=0;entryDy=0;" edge="1" parent="1" source="DCAcUUc1tO906QHbe2Nc-23" target="DCAcUUc1tO906QHbe2Nc-27">
          <mxGeometry width="50" height="50" relative="1" as="geometry">
            <Array as="points" />
          </mxGeometry>
        </mxCell>
        <mxCell id="DCAcUUc1tO906QHbe2Nc-118" value="" style="html=1;rounded=1;edgeStyle=orthogonalEdgeStyle;dashed=0;startArrow=diamondThinstartSize=12;endArrow=openThin;endSize=12;strokeColor=#595959;exitX=1;exitY=0.5;exitDx=0;exitDy=0;entryX=0.25;entryY=1;entryDx=0;entryDy=0;" edge="1" parent="1" source="DCAcUUc1tO906QHbe2Nc-24" target="DCAcUUc1tO906QHbe2Nc-6">
          <mxGeometry width="50" height="50" relative="1" as="geometry" />
        </mxCell>
        <mxCell id="DCAcUUc1tO906QHbe2Nc-122" value="" style="html=1;rounded=1;edgeStyle=orthogonalEdgeStyle;dashed=0;startArrow=diamondThinstartSize=12;endArrow=openThin;endSize=12;strokeColor=#595959;exitX=0.500;exitY=0.001;exitDx=0;exitDy=0;entryX=0.500;entryY=1.001;entryDx=0;entryDy=0;" edge="1" parent="1" source="DCAcUUc1tO906QHbe2Nc-24" target="DCAcUUc1tO906QHbe2Nc-28">
          <mxGeometry width="50" height="50" relative="1" as="geometry" />
        </mxCell>
        <mxCell id="DCAcUUc1tO906QHbe2Nc-126" value="" style="html=1;rounded=1;edgeStyle=orthogonalEdgeStyle;dashed=0;startArrow=diamondThinstartSize=12;endArrow=openThin;endSize=12;strokeColor=#595959;exitX=0;exitY=0.25;exitDx=0;exitDy=0;entryX=1;entryY=0.25;entryDx=0;entryDy=0;" edge="1" parent="1" source="DCAcUUc1tO906QHbe2Nc-25" target="DCAcUUc1tO906QHbe2Nc-20">
          <mxGeometry width="50" height="50" relative="1" as="geometry" />
        </mxCell>
        <mxCell id="DCAcUUc1tO906QHbe2Nc-130" value="use" style="html=1;rounded=1;edgeStyle=orthogonalEdgeStyle;dashed=0;startArrow=diamondThinstartSize=12;endArrow=openThin;endSize=12;strokeColor=#595959;exitX=0.500;exitY=0.001;exitDx=0;exitDy=0;entryX=0.500;entryY=1.001;entryDx=0;entryDy=0;" edge="1" parent="1" source="DCAcUUc1tO906QHbe2Nc-25" target="DCAcUUc1tO906QHbe2Nc-22">
          <mxGeometry width="50" height="50" relative="1" as="geometry">
            <Array as="points" />
          </mxGeometry>
        </mxCell>
        <mxCell id="DCAcUUc1tO906QHbe2Nc-134" value="" style="html=1;rounded=1;edgeStyle=orthogonalEdgeStyle;dashed=0;startArrow=diamondThinstartSize=12;endArrow=openThin;endSize=12;strokeColor=#595959;exitX=0.500;exitY=0.002;exitDx=0;exitDy=0;entryX=0.500;entryY=1.002;entryDx=0;entryDy=0;" edge="1" parent="1" source="DCAcUUc1tO906QHbe2Nc-29" target="DCAcUUc1tO906QHbe2Nc-33">
          <mxGeometry width="50" height="50" relative="1" as="geometry">
            <Array as="points" />
          </mxGeometry>
        </mxCell>
        <mxCell id="DCAcUUc1tO906QHbe2Nc-138" value="" style="html=1;rounded=1;edgeStyle=orthogonalEdgeStyle;dashed=0;startArrow=diamondThinstartSize=12;endArrow=openThin;endSize=12;strokeColor=#595959;exitX=0.500;exitY=0.001;exitDx=0;exitDy=0;entryX=0.500;entryY=1.001;entryDx=0;entryDy=0;" edge="1" parent="1" source="DCAcUUc1tO906QHbe2Nc-30" target="DCAcUUc1tO906QHbe2Nc-8">
          <mxGeometry width="50" height="50" relative="1" as="geometry">
            <Array as="points" />
          </mxGeometry>
        </mxCell>
        <mxCell id="DCAcUUc1tO906QHbe2Nc-142" value="" style="html=1;rounded=1;edgeStyle=orthogonalEdgeStyle;dashed=0;startArrow=diamondThinstartSize=12;endArrow=openThin;endSize=12;strokeColor=#595959;exitX=1;exitY=0.75;exitDx=0;exitDy=0;entryX=0;entryY=0.5;entryDx=0;entryDy=0;" edge="1" parent="1" source="DCAcUUc1tO906QHbe2Nc-30" target="DCAcUUc1tO906QHbe2Nc-34">
          <mxGeometry width="50" height="50" relative="1" as="geometry">
            <Array as="points">
              <mxPoint x="400" y="308" />
              <mxPoint x="400" y="427" />
            </Array>
          </mxGeometry>
        </mxCell>
        <mxCell id="DCAcUUc1tO906QHbe2Nc-146" value="use" style="html=1;rounded=1;edgeStyle=orthogonalEdgeStyle;dashed=0;startArrow=diamondThinstartSize=12;endArrow=openThin;endSize=12;strokeColor=#595959;exitX=0.5;exitY=1;exitDx=0;exitDy=0;entryX=0.5;entryY=0;entryDx=0;entryDy=0;" edge="1" parent="1" source="DCAcUUc1tO906QHbe2Nc-32" target="DCAcUUc1tO906QHbe2Nc-35">
          <mxGeometry width="50" height="50" relative="1" as="geometry" />
        </mxCell>
        <mxCell id="DCAcUUc1tO906QHbe2Nc-150" value="use" style="html=1;rounded=1;edgeStyle=orthogonalEdgeStyle;dashed=0;startArrow=diamondThinstartSize=12;endArrow=openThin;endSize=12;strokeColor=#595959;exitX=0.500;exitY=0.001;exitDx=0;exitDy=0;entryX=0.500;entryY=1.002;entryDx=0;entryDy=0;" edge="1" parent="1" source="DCAcUUc1tO906QHbe2Nc-32" target="DCAcUUc1tO906QHbe2Nc-39">
          <mxGeometry width="50" height="50" relative="1" as="geometry" />
        </mxCell>
        <mxCell id="DCAcUUc1tO906QHbe2Nc-154" value="" style="html=1;rounded=1;edgeStyle=orthogonalEdgeStyle;dashed=0;startArrow=diamondThinstartSize=12;endArrow=openThin;endSize=12;strokeColor=#595959;exitX=0.500;exitY=0.002;exitDx=0;exitDy=0;entryX=0.500;entryY=1.002;entryDx=0;entryDy=0;" edge="1" parent="1" source="DCAcUUc1tO906QHbe2Nc-33" target="DCAcUUc1tO906QHbe2Nc-30">
          <mxGeometry width="50" height="50" relative="1" as="geometry">
            <Array as="points" />
          </mxGeometry>
        </mxCell>
        <mxCell id="DCAcUUc1tO906QHbe2Nc-158" value="" style="html=1;rounded=1;edgeStyle=orthogonalEdgeStyle;dashed=0;startArrow=diamondThinstartSize=12;endArrow=openThin;endSize=12;strokeColor=#595959;exitX=0.75;exitY=0;exitDx=0;exitDy=0;entryX=0.500;entryY=1.002;entryDx=0;entryDy=0;" edge="1" parent="1" source="DCAcUUc1tO906QHbe2Nc-34" target="DCAcUUc1tO906QHbe2Nc-19">
          <mxGeometry width="50" height="50" relative="1" as="geometry">
            <Array as="points" />
          </mxGeometry>
        </mxCell>
        <mxCell id="DCAcUUc1tO906QHbe2Nc-162" value="" style="html=1;rounded=1;edgeStyle=orthogonalEdgeStyle;dashed=0;startArrow=diamondThinstartSize=12;endArrow=openThin;endSize=12;strokeColor=#595959;exitX=0.25;exitY=0;exitDx=0;exitDy=0;entryX=1;entryY=0.5;entryDx=0;entryDy=0;" edge="1" parent="1" source="DCAcUUc1tO906QHbe2Nc-34" target="DCAcUUc1tO906QHbe2Nc-30">
          <mxGeometry width="50" height="50" relative="1" as="geometry">
            <Array as="points">
              <mxPoint x="748" y="360" />
              <mxPoint x="490" y="360" />
              <mxPoint x="490" y="301" />
            </Array>
          </mxGeometry>
        </mxCell>
        <mxCell id="DCAcUUc1tO906QHbe2Nc-166" value="implements" style="html=1;rounded=1;edgeStyle=orthogonalEdgeStyle;dashed=1;startArrow=none;endArrow=block;endSize=12;strokeColor=#008200;exitX=0.500;exitY=0.001;exitDx=0;exitDy=0;entryX=0.5;entryY=1;entryDx=0;entryDy=0;" edge="1" parent="1" source="DCAcUUc1tO906QHbe2Nc-36" target="DCAcUUc1tO906QHbe2Nc-35">
          <mxGeometry width="50" height="50" relative="1" as="geometry" />
        </mxCell>
        <mxCell id="DCAcUUc1tO906QHbe2Nc-171" value="use" style="html=1;rounded=1;edgeStyle=orthogonalEdgeStyle;dashed=0;startArrow=diamondThinstartSize=12;endArrow=openThin;endSize=12;strokeColor=#595959;exitX=0.500;exitY=0.001;exitDx=0;exitDy=0;entryX=0.500;entryY=1.001;entryDx=0;entryDy=0;" edge="1" parent="1" source="DCAcUUc1tO906QHbe2Nc-39" target="DCAcUUc1tO906QHbe2Nc-37">
          <mxGeometry width="50" height="50" relative="1" as="geometry">
            <Array as="points" />
          </mxGeometry>
        </mxCell>
        <mxCell id="DCAcUUc1tO906QHbe2Nc-175" value="&lt;b&gt;&lt;font style=&quot;font-size: 18px;&quot;&gt;br.com.pucminas.mefit&lt;/font&gt;&lt;/b&gt;" style="text;html=1;strokeColor=none;fillColor=none;align=center;verticalAlign=middle;whiteSpace=wrap;rounded=0;" vertex="1" parent="1">
          <mxGeometry x="13.5" y="10" width="395" height="30" as="geometry" />
        </mxCell>
        <mxCell id="DCAcUUc1tO906QHbe2Nc-213" value="" style="ellipse;html=1;shape=startState;fillColor=#000000;strokeColor=#ff0000;" vertex="1" parent="1">
          <mxGeometry x="120" y="490" width="30" height="30" as="geometry" />
        </mxCell>
        <mxCell id="DCAcUUc1tO906QHbe2Nc-214" value="" style="edgeStyle=orthogonalEdgeStyle;html=1;verticalAlign=bottom;endArrow=open;endSize=8;strokeColor=#ff0000;rounded=0;entryX=0.5;entryY=0;entryDx=0;entryDy=0;" edge="1" source="DCAcUUc1tO906QHbe2Nc-213" parent="1" target="DCAcUUc1tO906QHbe2Nc-15">
          <mxGeometry relative="1" as="geometry">
            <mxPoint x="135" y="580" as="targetPoint" />
          </mxGeometry>
        </mxCell>
      </root>
    </mxGraphModel>
  </diagram>
</mxfile>
